<?xml version="1.0" encoding="utf-8"?>
<!-- Generator: Adobe Illustrator 24.2.1, SVG Export Plug-In . SVG Version: 6.00 Build 0)  -->
<svg version="1.1" id="Layer_1" xmlns="http://www.w3.org/2000/svg" xmlns:xlink="http://www.w3.org/1999/xlink" x="0px" y="0px"
	 viewBox="0 0 400 400" style="enable-background:new 0 0 400 400;" xml:space="preserve">
<style type="text/css">
	.st0{fill:#FEC238;}
	.st1{fill:#59390F;}
</style>
<g>
	<g>
		<path class="st0" d="M353.7,215.8l-0.4-5.5c2.8-1.6,6-4.3,7.3-9l0.1-0.4c0.7-0.9,1.3-2,1.8-3.2l0.5-12l-13-5.4l-1.2-2.7
			c-0.6,0.2-1.2,0.4-1.9,0.7l-1.2-3c-0.8,0.2-1.6,0.4-2.4,0.7l-0.9-2.4l-0.7,0.1c-5,0.8-9,2.9-12.5,4.8c-0.5,0.3-1,0.5-1.4,0.7
			l-0.6-2.6l7.9-11l-54.4-38.9c1-2.7,0.8-10.2,1.9-13.2c0,0-22.2-3.3-23.1-2.1l-88.8-70.3L47.9,210.6l12.7,10l-0.4-0.1l0.4,3.1
			c-0.5-0.1-1-0.1-1.6-0.2c-3.9-0.6-8.4-1.3-13.4-0.5l-0.7,0.1l0,2.5c-0.8,0-1.7,0-2.5,0.1l-0.1,3.2c-0.7,0-1.3,0-2,0l-0.3,2.9
			l-14.4,3.7l8.2,16.8c0.9,1,1.8,1.8,2.7,2.4l0.2,0.3c2.8,4.1,6.7,5.6,9.8,6.2l-14.7,2.6l15.6,18.6c0.7,0.5,1.7,1,2.7,1.4
			c2.3,1.9,6.2,3.9,12,3c0.7-0.1,1.5-0.3,2.2-0.5l0.4-0.1l10.2-1.9l0.1,0c2.7,0.7,5.1,0.6,7.1,0.3c0.1,0,0.1,0,0.2,0.1l0.8,4.8
			l5.1-1.4l-4.9,11.8l19.9-5.6c0.1,3.2-1.1,8.5-0.6,11.7L106,322l4.6,0.6l0.4,1.7l11.4-8.5l0.9,0.6l0.9-0.6l0.3,1.8l2-0.1
			c0.8,1.8,1.8,3.4,2.9,5l3.8,5.3l4.7,15l5.1-3.6c0.3,0.4,0.6,0.8,1,1.2l8.7,8.6l7.5-4.7l3.8-2.3l1.2,0.7l0.6-1.9
			c0.2-0.2,0.4-0.3,0.6-0.5l6.7,0.6l1.7-10.4l4.5,4.8l3.3-22c0.1-1.7,0.1-3.4,0.1-5.1l33.3,23.8l22.3-31.1l6.1,20l1.9-3.8l5.8,15
			l2.7-6l3.9,7.8l6.5-9.9c0.3,0.1,0.5,0.2,0.8,0.2l1.1,1.5l0.9-1l4.3,1l8.2,6.2l5.9-15.1c0.2-0.5,0.4-0.9,0.5-1.4l6,1.7l-0.4-15.7
			l1.9-6.2c0.6-1.8,0.9-3.7,1.1-5.7l1.9-0.6l-0.3-1.8l1.1,0.2l0.7-0.8l8.5-0.2l4.6,2.6c-0.4-0.9-0.8-1.8-1.1-2.7
			c0-0.1,0-0.2,0.1-0.2c1,0.2,2.1,0.5,3.3,0.8c0.4,0.5,0.7,1.1,1.1,1.6l2.6-0.8l1.8-14.4c-0.5-3-1.3-6-2.2-8.9l-4.7-5.7l11.7-1.9
			l-5.9-9.1l8.1-3.4c0,0,0.1-0.1,0.1-0.1c2-0.4,4.3-1,6.6-2.6l0.1,0l10.2-1.5l0.5,0c0.8-0.1,1.5-0.1,2.2-0.3c5.8-1,8.8-4.2,10.4-6.7
			c0.9-0.7,6-8.7,6.6-9.4L353.7,215.8z"/>
	</g>
</g>
<g>
	<path class="st1" d="M352.6,221.3c0.1,0,0.1,0,0.2,0C352.7,221.2,352.6,221.2,352.6,221.3C352.5,221.3,352.6,221.3,352.6,221.3z"/>
	<path class="st1" d="M338.1,217.3c0.6,0.1,1.2,0.3,1.9,0.5c2-0.3,4-0.6,6-1.1c-0.1-0.1-0.3-0.2-0.4-0.3c-0.6,0-1.2,0-1.8,0
		c0.3,0.1,0.6,0.3,1,0.4c-1.1,0.3-2,0.1-2.8-0.2C340.6,216.8,339.3,217,338.1,217.3z"/>
	<path class="st1" d="M324,218.2c-0.7,0.2-1.5,0.3-2.3,0.4c0.6,0.3,1.2,0.6,2,1C323.9,219.2,324,218.7,324,218.2z"/>
	<path class="st1" d="M318.5,218.5c0.2-0.2,0.3-0.3,0.5-0.4c0.9-0.6,1.5-1.2,1.6-1.5c-3.7-1.8-7.7-2.8-11.3-5
		c0.4-2.7,0.1-5.6-0.2-8.5c-1.1-0.2-2-0.4-3.3-0.5c-0.6,0.5-1.2,1.1-1.7,1.6c0,0.4-0.1,0.7-0.3,1.1c-0.2-0.1-0.4-0.2-0.6-0.3
		c-0.3,0.3-0.6,0.6-0.9,0.9c0.3,1.7,0.4,3.2,0.6,5.1c0,0.3,0.1,0.8,0.2,1.4c5.3,1.8,10.3,4.1,14.8,6.3
		C318.1,218.8,318.3,218.7,318.5,218.5z"/>
	<path class="st1" d="M296.2,224.2c0.2-0.2,0.5-0.3,0.7-0.5c-0.4-0.5-0.9-0.8-1.4-1.1c-0.4,0.3-1,0.7-1.8,1.4
		C294.5,224,295.3,224.1,296.2,224.2z"/>
	<path class="st1" d="M316.8,204c0.7,0,1.3,0,1.8,0c0-1,0.1-2,0.2-3.1c0-0.3,0-0.5,0.1-0.8c-1.4-0.3-3.2-0.9-4.8-1.8
		c-0.2,0.1-0.3,0.2-0.5,0.2c0.9,1.5,3,3.1-0.2,2.8c1.9,1,3.1,1.2,3.7,0.9c1.2,0.8,1.1,1,0.4,1C318.2,203.7,317.4,203.7,316.8,204z"
		/>
	<path class="st1" d="M229.6,115.8c-1-1.8-1.9-3.2-2.7-4.7c-0.5-0.1-1-0.2-1.5-0.3c0.5,1.1,0.8,2.2,1.1,3.2l2.5,1.8
		C229.2,115.8,229.4,115.8,229.6,115.8z"/>
	<path class="st1" d="M347.9,219C347.9,219,347.9,219.1,347.9,219c0.1,0.1,0.2,0.1,0.3,0.1C348,219.1,347.9,219,347.9,219z"/>
	<path class="st1" d="M319,198.4c0.1-0.9,0.2-1.8,0-2.6c-1.2,0.7-2.6,1.3-3.9,2C316.6,198.2,318,198.4,319,198.4z"/>
	<path class="st1" d="M197.7,85.1c-2.2,0.5-5.6,0.2-11.4-1.7c-5.6-2.1,3.5,0.1,5.7,0.9c-0.1-1.2-2.6-2.2-6.9-3.2
		c0.9-0.7,4.8,0.7,7.6,1.4c-2.4-1.1-4.9-2.1-7.6-3c-0.9,0.3-2.7,1.1-4.4,1.7l8.4,6c2.9,1,6.7,2.5,8.5,3.1c-3.4,2.6,5.6,2.6,7.6,5.4
		c-2.1-0.4-4.4-1.1-6.7-1.8l12.6,9.1c0.6-0.6,2-0.5,3.8,0.1c2-0.2,3.5,0.1,6,2.2c-0.6-1.5,0.8-0.3,3.6,3.5c0.6,0.5,1.2,0.9,1.9,1.4
		c-1.5-2.7-1.4-4.3,0.9-1.2c0.8-1.1,0.3-1.3,3.1,2.6c-0.1-1.2-0.6-2.7-1.2-4.3c-2.2-1.4-1.8-2.6-4.8-4.1c0.2-0.7,2.1,0.1,4.2,1
		L206,88.1c-1.1,0.2-1.8,0.6-1.8,1.4C198.5,88.2,201.9,86.4,197.7,85.1z M212.4,98.1c2.3,1.4,12.4,3.1,11.4,4.2
		c0.7,2.6-8.2-2.9-11.5-4.1L212.4,98.1z"/>
	<path class="st1" d="M194.8,80.1c-0.4,0.3-1.3,0.5-1.6,1.2c2.3,0.6,3.7,0.9,4.8,1.1L194.8,80.1z"/>
	<path class="st1" d="M328.6,201.6c8.8-4.1,17.3-7.6,25-11.9c-8.3,2.9-17.1,7.3-25.6,11.1c0.3-0.9-0.2-2.5,0.7-3.3
		c0.9-0.8,2.7-1.1,4-1.6c5.2-2.4,12.6-5.9,17-8.2c-5.1,1.3-10.6,4.4-16.1,6.6c-1.7,0.7-3.3,1.6-4.9,2.2c-0.1-1-0.1-1.9,0.5-2.7
		c5.2-2.5,11-4.5,15.8-7.6c-5.2,0.7-9.9,4.4-15.3,6.5c-2.8,1-5.6,2-8.1,3.2c-0.3,1.2-0.5,2.4-0.7,3.6c0.4,0.4,0.3,0.7-0.1,0.8
		c0,0.5-0.1,0.9-0.1,1.4c7.1,2.1,1.1,3.1,4.7,5c-0.3,0.4-1,0.4-1.9,0.3c1.4,0.9,2.7,1.9,4.1,2.7c5.2-2.3,11.7-5.3,17.2-7.8
		c1.9-0.8,4.4-1.3,4.9-3.1c-5,2.3-10.5,4.3-15.3,6.9c-0.7-0.7-2.2-1.1-2.5-1.9c5.1-2.2,10.5-5,15.6-7.3c1.6-0.7,3.9-1.2,4.5-2.8
		c-7,2.9-14.1,6.2-21.2,9.4C330.2,202.6,328.9,202.1,328.6,201.6z"/>
	<path class="st1" d="M145.4,115.2c-0.9-0.3-3.5-1.2-3.8-1.3c-1.7-0.3-4.1,0-6.8,0.4l-9,12.5c2.7,0.5,6,1.5,9.3,2.7L145.4,115.2z"/>
	<path class="st1" d="M201.8,85l-1.8-1.3c-1.9-0.6-3.9-1.3-5.2-1.4C194.9,83.3,199.3,84.1,201.8,85z"/>
	<path class="st1" d="M286.4,200c1.5-1.5,3.9-0.9,7,0.1l-0.1-0.1c-2.2-0.9-4.6-2-6.5-3l-3.8,5.3c3,1.3,6.4,1.6,9.8,2.1l1.8-2.5
		C292.3,201.3,289.8,200.8,286.4,200z"/>
	<path class="st1" d="M303.7,168.5c-1.2-1.8-2.5-2-4.1-2.1l2.7,2C302.8,168.4,303.3,168.4,303.7,168.5z"/>
	<path class="st1" d="M305.5,186.6c-0.2,0-0.3,0-0.5,0c0.1,0,0.3,0.1,0.4,0.1l4.4-6.2c-2,0.5-4,1-6,1.7c0-1.1-1.5-1.4-3.8-1.1
		c-2.1-1.2,11.2-3.5,5.3-3.1c1.1-0.1,3-0.5,5.3-1c-2.4-0.8-4.9-1.7-7.6-2.7l-5.1,7.2C301,182.9,304.4,184.9,305.5,186.6z"/>
	<path class="st1" d="M316.2,203.1c-1.4-0.2-3.2-0.5-4.1-0.2C313.4,203.3,314.8,203.4,316.2,203.1z"/>
	<path class="st1" d="M315,173.4c-2.1-1.1-4.2-2-6.5-2.2c1,0.8,3.1,2.1,5.6,3.5L315,173.4z"/>
	<path class="st1" d="M288.4,194.9l-0.8,1.1c1,0.3,2,0.6,3,1c0,0,0,0,0.1,0l-1.1-1.3c0-0.1,0.1-0.1,0.2-0.1
		C289.3,195.3,288.8,195.1,288.4,194.9z"/>
	<path class="st1" d="M246.2,128.1l2.8,2C251.9,129.8,251.5,128.8,246.2,128.1z"/>
	<path class="st1" d="M236.4,118.8c-1.2,0.9-2.7-0.4-4.6-3.9c0.3,1.1,1.2,2.7,2.2,4.4l4.8,3.4C237.9,121.3,237.1,119.7,236.4,118.8z
		"/>
	<path class="st1" d="M251,131.5C251,131.5,251,131.5,251,131.5c0-0.1-0.1-0.1-0.2-0.1L251,131.5z"/>
	<path class="st1" d="M305.4,186.8c-1.5,0.7-7.1-1.5-6.3,0.8c-1.8-0.8-2.3-1.8-3.2-2.7c-0.1,0-0.3,0.1-0.4,0.1l-6.5,9.1
		c1.9,0.6,3.9,1.3,5.2,1.4c0,0-0.1,0.1-0.1,0.1c1.1-0.5-1.5-1.4,1.5-1.7c2,0.4,3.1,0.8,3.8,1.3L305.4,186.8z"/>
	<path class="st1" d="M296.6,183.4c0.9,0.1,1.7,0.2,2.1,0c-0.5-0.3-0.9-0.7-1.3-1L296.6,183.4z"/>
	<path class="st1" d="M269.4,221.4l-3.9,5.4c0.3,0.1,0.6,0.2,0.9,0.3c3.3-1.5,8-3,10.3-3.5C274.4,222.9,271.9,222.1,269.4,221.4z"/>
	<path class="st1" d="M296.5,199.2l1.6-2.2c-1.3-0.2-2.8-0.5-4.4-0.9c-0.3,0.9,1.3,1.7,1.5,2.6C295.6,198.9,296,199.1,296.5,199.2z"
		/>
	<path class="st1" d="M73.8,215.7c4.9,1.7,5,0.2,9.3,1.4c-2.1,0.4-5.3,0.2-7.9,0.2c2.2,3.3,11.5,2.6,16.4,3.8
		c-1.1-0.5-2.3-1-3.4-1.5c-0.7-1.7,1.8-0.5,3.5,0l-7-5c-4.4-0.9-9.2-1.9-11.4-2c0.6-0.6,0-1.2-1.4-1.7c2.3-0.9,5.7,0.1,9.8,1.6
		l-3.9-2.8l2.9-4.1c-0.6-0.3-1.1-0.6-1.6-0.9c-2.4-1-4.8-1.9-7.2-2.5l-6.9,9.6l8.8,6.3C74.1,217.5,74.3,216.7,73.8,215.7z"/>
	<path class="st1" d="M287.7,205.5c-1.9-0.6-3.9-1.2-5.7-1.7l-0.7,1c2.6,1.2,5.3,2.5,7.6,3.1C289.6,207.2,289.1,206.4,287.7,205.5z"
		/>
	<path class="st1" d="M125.4,291.6c0.1-0.7,0.1-1.4,0-2c-0.1-0.5-0.8-2.2-1.6-3.8c-0.3-0.1-0.7-0.1-1-0.2c0.3,1.1,0.6,2.3,0.8,3.3
		c0.1,0.6,0.4,2.8,0.3,4.8l1.3-2.3C125.3,291.5,125.3,291.6,125.4,291.6z"/>
	<path class="st1" d="M125.3,263.1c0.2,0,1,0.1,2,0.3c0.8-0.6,1.5-1.1,2.2-1.1c-0.8-0.3-1.8-0.6-2.7-0.7c2-0.4,4.1-0.7,6-0.8
		c1.2-0.1,2.2-0.1,3.1,0l-0.1-1.4c-0.5,0-0.9-0.1-1.4,0c-2.9,0.1-5.8,0.6-8.5,1.4c-0.3,0.3-0.5,0.6-0.8,0.9c0,0,0,0,0,0
		c-0.4,0.5-1.1,1.2-1.4,1.6C124.2,263.2,124.7,263.1,125.3,263.1z"/>
	<path class="st1" d="M124.2,275.2c1-1.3,1.9-2.2,2.4-2.7c2.3-1.9,4.3-3.2,6.3-4.1c1.2-1.1,2.8-2,4.2-2.7c-2.1,0.3-9.1,2-14.8,9.3
		C123.5,274.3,124.3,274.3,124.2,275.2z"/>
	<path class="st1" d="M130.4,262.6c-0.4,0.4-0.7,0.8-1.1,1.2c2.1,0.5,4.3,1,4.3,1S132.3,263.6,130.4,262.6z"/>
	<path class="st1" d="M221,288.9l-1.7,2.4c0.7,0.3,1.5,0.6,2.3,0.9c-2.3,0.3,4,4.1-1.3,2.3c-1.2-0.5-2-0.8-2.5-1.1l-7.8,10.9l-4-2.9
		c-1.6,0.7-2.1,1.7-4.1,2.7c-1-1.6-6.3-4.1-2.1-3.7c-3.4-1.5-3.1,0.6-7.5-1.8c0.2-0.6-1.9-1.3-3.1-2c-0.4-2.4,3.2,0.9,5.6,1.1
		c3.1,1.2,2.7-0.2,6.1,1.1c-0.7-1-3.2-2.1-2.6-2.9l-2.4-0.4l-8.3,0.5c0,0-2.8,0-3.2,1.2l20,14.4c2-0.5,5.5-0.3,10.9,1.4l3.1-4.3
		c-1.2-0.6-2.3-1.1-3-1.5c1.7,0.4,3,0.3,4,0.1l7-9.7c-0.4-0.1-1.8-1.1-2.2-1.2c0.4,0,2.2,0.4,2.6,0.5l6.5-9l-9.1,2.6L221,288.9z"/>
	<path class="st1" d="M305.6,273.3c0,0.1,0,0.2,0.1,0.3c-2.8-0.6-4.7-2.5-8.3-2.4c0.1,0.7,0.2,1,0.2,1.5c-1.3-0.8-1.8-1.8-4.2-1.3
		c0,0.4-1,1.8-0.9,2.3c-0.6-0.3-0.9-0.5-1.6-1c0,0.1,0,0-0.1-0.1c0,0,0.1,0,0.1,0.1c-1.7-2.7-4.9-8.6-5-9.5c-0.3-3-0.6-7.2-0.6-7.2
		s-1.5,5.7-0.5,8.8c0.8,2.5,2.5,4.9,4,6.6c0.2,0.4,1.1,1.8,1.2,2.1c-0.8-0.5-10.2-3.1-10.8-6.4c1.3,1.2,2,0.6,3.1,0.7
		c-1.1-5-4.6-8.6-7.1-11.8c1.1-0.4,2.9-0.4,3.7-0.2c-0.8-1.7-2.7-3-4.7-3.8c0.8,1.1,2,2.3,3.4,3.5c-4.9-1.7-7.9-4-13.5-6.2
		c0,0,0,0,0,0l0.2,0.7c0.2,0,0.4,0.1,0.5,0.3c0.2,0.2,0.4,0.5,0.6,0.7c0.4,0.3,0.7,0.6,1.1,0.9c2,0.8,3.9,1.8,5.4,3.2
		c0.2,0.8,0.3,1.7,0.3,2.4c-1.8-0.2-3.4,0.4-5,0.8c0,0,1,3.8,7.1,7.5c3.5,2.1,6.3,7.9,5.8,12.7c-5.9-0.4-10-3.6-11.8-10.8l-0.6,1.3
		c0.3,2.5-0.3,3.8-0.9,5.8c0.8,0.5,1.6,1,2.5,1.6c0.2-0.7,0.4-1.4,0.6-2.1c0.9,2.2,2.2,3.6,3.8,4.6c1.3,0.7,2.7,1.4,4.1,2
		c0.2,0.1,0.4,0.2,0.6,0.2c0,0,0,0,0,0c1,0.5,2.1,0.9,3.2,1.3c-0.8,0-1.6-0.1-2.6-0.3c0.3,0.7,0.5,1.4,0.7,2.1l3.4,1.5
		c-0.2-1.2-0.5-2.4-0.9-3.7c0.3-0.3,0.9,0.5,1.5,0.4c-0.5-3.1-0.5-6-1.6-9.6c2.1,1.3,5.2,2.3,8,3.1c0.2-0.5,0.4-0.7,0.6-1
		c0.9,0.3,1.9,0.6,2.8,0.8c0.5-0.6,0.8-1,1.2-1.5c1.8-0.2,2.7,0.9,4.1,1.3c0-0.4,0-0.8,0-1.3c3.4,0.3,6.5,2.2,9.2,2.9
		c-0.2-0.9-0.3-1.8-0.5-2.7C306.9,273.9,306.3,273.6,305.6,273.3z M268.9,259.1c2.1-0.6,3.9,0.8,5.6,0.7c-0.1-0.9-0.3-1.6-0.6-2.6
		c1.5,1.9,3.4,3.9,4.1,6.3C274.5,263.3,271.5,260.8,268.9,259.1z"/>
	<path class="st1" d="M83.5,221.8c2.4,0.7,4.6,1.4,6.8,1.9c0.5,0.1,1,0.1,1.4,0.2c0.4,0.2,0.8,0.3,1.1,0.5c1,0.2,1.9,0.4,2.8,0.6
		c-0.2-0.3-0.1-0.5,0.2-0.8c0.8,0.5,1.5,0.9,2.1,1.3c0.9,0.2,1.8,0.3,2.7,0.5l-4.7-3.4c-0.7-0.2-1.5-0.5-2.3-0.8c0.7,0.4,1,1,1,1.8
		C89.2,222,87.7,222.8,83.5,221.8z"/>
	<path class="st1" d="M117,278.9c0,0-3.2,0.2-5.5,2.5c-2.4,2.3-2.2,3-2.2,3s1.4-1.3,3.6-2.9C115,279.8,117,278.9,117,278.9z"/>
	<path class="st1" d="M166.2,316.1c0.4,0.2,0.8,0.3,1.2,0.5c0.1-0.4,0.2-0.8,0.3-1.3c-0.4,0-0.8-0.1-1.2-0.2
		C166.4,315.4,166.3,315.7,166.2,316.1z"/>
	<path class="st1" d="M138.8,270.9l0-0.3c-3.2,1.8-10,6.5-10.4,9.9c0.7-0.4,2.4-1,3.6-1c-0.6,1.9-1.5,3.9-2.1,6
		c0.7,0.1,1.4,0.1,2,0.3c0.1-2,0.5-4,1.1-5.7c0,1,0.9,2.1,1,3c0.8-0.3,2.5-1.1,4.2-2l-0.2-0.7c-1.2,0.2-2.2,0.4-3,0.8
		c-0.2-0.6-1-3.1-1.1-3.9C134.7,275.5,137.5,272.3,138.8,270.9z"/>
	<path class="st1" d="M165,314.8c-1-0.2-2-0.5-3-0.7c0.9,0.4,1.9,0.9,2.9,1.4C165,315.3,165,315.1,165,314.8z"/>
	<path class="st1" d="M83.3,270c0.1-0.3,0.2-0.5,0.4-0.8c0.5-1,1.5-2.2,1.5-3.1c-0.1-1.3-1.5-2.6-2.3-3.6c-0.9-1.2-1.4-2.5-2.3-3.7
		c-2.1,0-4.7,0.7-6.9,0.9c0.5,1.2,1.7,2.2,2.6,3.3c0.9,1.1,1.8,2.3,2.6,3.5c-0.1,0.1-0.2,0.3-0.2,0.4c1.7,0.5,3.4,1.1,4.5,1.2
		C82.3,268.8,82.7,269.4,83.3,270z"/>
	<path class="st1" d="M81.3,271.5c-2.5-0.9-3-1.7-1.6-2l-1.1-1.3c0-0.1,0.1-0.1,0.2-0.1c-0.2-0.1-0.4-0.2-0.6-0.3
		c-0.7,1.4-1.4,2.9-2.1,4.3c1.5-0.8,3.5-0.3,6,0.5c0,0,0.1-0.1,0.1-0.1L81.3,271.5z"/>
	<path class="st1" d="M51.7,265.3c3.8-0.2,7.8-1.2,11.7-1.9c-0.4-0.2-0.8-0.3-1.1-0.4C58.6,263.6,54.8,263.7,51.7,265.3z"/>
	<path class="st1" d="M65.1,262.4C65,262.4,65,262.4,65.1,262.4c2.3,0.9,5.5,2.8,8.8,3.7c0.2-0.5,1.5-0.2,3.1,0.2
		c-1.6-2-3-4-4.9-5.6C69.7,261.2,67.4,261.8,65.1,262.4z"/>
	<path class="st1" d="M173.2,76.5c-0.1,0-0.3-0.1-0.4-0.1c1.3-1.4,6.4-0.2,10.1,0.1c-1.2,1.4,3.3,2.6,6.6,3.7
		c5.3,0.8-2.1-2.3,2.7-1.9c0.1,0,0.2,0.1,0.3,0.1l-13-9.3c0.1,0.7-0.5,1.3,1.4,2.1c-2.4,0-8.2-1.8-12.7-3.6l-10,14
		c3.8-0.3,7.8-0.7,12-1.1L173.2,76.5z"/>
	<path class="st1" d="M340.9,229c0.7-0.1,1.4-0.2,2.1-0.3c1.7-0.2,3.8-0.1,4.5-1.4c-2.5,0.4-5.1,0.7-7.6,1
		C340.3,228.6,340.6,228.8,340.9,229z"/>
	<path class="st1" d="M219.6,292.1c-0.2-0.1-0.4-0.2-0.6-0.3l-0.8,1.1C218.9,292.8,219.7,292.7,219.6,292.1z"/>
	<path class="st1" d="M303.6,271c0.1,0,0.1,0,0.2,0.1c-0.4-1.2-1.5-3.9-4.4-7.8c-0.6-0.2-1.3-0.5-1.9-0.7
		C301,266.3,302.9,269.6,303.6,271z"/>
	<path class="st1" d="M123.6,285.4c-0.9-1.8-1.7-3.5-1.7-3.5s0.4,1.6,0.9,3.5C123,285.4,123.3,285.4,123.6,285.4z"/>
	<path class="st1" d="M82.4,248.2c0.3-1.4-0.6-3-1.2-4.4c-3.1-0.9-6.1-2.1-9.1-4.2c0.3,0.7,0.7,1.3,1,2c0.5,1.3,1.1,2.6,1.5,3.8
		c0,0,0,0,0,0c2.2,4.1,1.6,5.4-1.2,5c-0.4-0.4-0.7-0.8-1-1.2c-0.8,0.9-1.5,1.7-2.3,2.6c2.4,0.7,4.8,1.5,6.5,1.8
		c-1.9,0.1-4.5-0.3-7.3-0.9c-0.5,0.5-1,1-1.6,1.4c1.8,1.1,5.3,1,7.9,1.4c1.7-0.8,2.3-2.4,3.9-4.1C80.6,250.3,82.2,249.2,82.4,248.2z
		"/>
	<path class="st1" d="M124.7,294.9c-0.2-0.1-0.5-0.2-0.7-0.4c0,1.1-0.1,2.1-0.4,2.7C123.9,296.9,124.4,296,124.7,294.9z"/>
	<path class="st1" d="M121.9,278.3c-1.2,0.9-2.2,1.6-3.3,2.3c-0.7,1-1.3,1.9-1.8,2.8c-0.7,1.4-0.8,2.5-0.8,3.5
		C117.6,284.3,119.8,281.1,121.9,278.3z"/>
	<path class="st1" d="M118,287.6c0,0-0.8,1.7-1.3,3.2c0,0.8,0,1.6-0.4,2.7c0-0.1,0-0.1-0.1-0.1c-0.3,2.4-0.9,6.3-0.9,6.3
		s1-3,1.8-5.9C118,290.8,118,287.6,118,287.6z"/>
	<path class="st1" d="M264.1,244.5c0,0-2.4,0.7,0.6,0.6c0.5,0,1.1,0,1.7,0c-0.4-0.3-0.8-0.6-1.2-0.9
		C264.6,244.4,264.1,244.5,264.1,244.5z"/>
	<path class="st1" d="M84.4,245.9c2.3,0.9,5.5,2.4,7.8,4c-0.2-1.4-0.7-3.1-0.8-3.8c-0.3-1.5-0.7-2.7-0.9-4c-1-0.2-2-0.5-3.2-0.6
		c-0.2-0.9,0.7-1,2.2-0.8c-2.1-1.1-4.5-2.4-7-2.6c0.3,1.4,0.6,2.8,1,4.2c2.4,1.2,4.9,2.3,7.7,3.2c-2.5-0.3-4.8-0.6-7.1-1.1
		C84.1,244.9,84.2,245.4,84.4,245.9z"/>
	<path class="st1" d="M110,300.2c0,0,0.3-3.6,4.8-11.3c-0.1-0.8-0.1-1.5,0-2.3c-1.6,2.6-2.3,3.9-3.1,6.3
		C109.1,300.1,110,300.2,110,300.2z"/>
	<path class="st1" d="M129.6,246.8c-5.1-0.4-13.8-2.8-16.1-4.9c2-0.3,8.5,1.3,13.3,2.9l-7.2-5.2c0.4,2.3-5.9-1.6-9.2-2.7l1-1.7
		c1.1,0.7,3.3,1.4,5.1,2.1l-9.5-6.8c-1.1-0.2-2.2-0.3-3.2-0.5c-0.8,0.3-1.4,0.7-2,1.2c1,0.4,1.9,0.9,2.4,1.6
		c-1.1-0.2-2.2-0.5-3.4-0.8c-0.4,0.3-0.8,0.6-1.3,0.8c-0.3-0.5-1.1-1.2-1.9-1.7c-2.7-0.8-5.5-1.7-8.1-2.5c-0.3-0.2-0.5-0.4-0.7-0.5
		c-0.4-0.1-0.8-0.1-1.2-0.2l41.3,29.6c0.2-0.3,0.5-0.6,0.7-0.9c-1.9-1.3-2.4-2.3-4-3.5c2,0.6,2-1.6,5.9,1.5c0.5,0.7,0.6,1.4,0.5,2
		c0.8-0.2,1.6-0.3,2.2-0.2c0.9,0.2,0.3-2.4,0.3-2.4l2.9-1.7L129.6,246.8z"/>
	<path class="st1" d="M333.1,218.1c-2.4,0.2-4.8,0.3-7.1,0.7c-0.3,0.5-0.6,1.1-0.9,1.7c1.5,0.8,3.4,1.7,5.5,2.5
		c0.2-0.5,0.4-1,0.8-1.2c0.9-0.5,2.4-0.2,3.5-0.4c1.3-0.2,2.8-0.4,4.3-0.7c0,0,0,0,0,0c0,0,0,0,0.1,0c1.2-0.2,2.5-0.4,3.7-0.6
		c-0.4-0.2-0.8-0.4-1.2-0.6c-1.9,0.3-3.9,0.6-5.8,0.8c-1.5,0.2-3,0.5-4.4,0.6c0.2-0.8,0.4-1.5,1-2c2-0.3,4.1-0.6,6.2-0.9
		c-0.4-0.2-0.8-0.4-1.2-0.6C336,217.7,334.5,218,333.1,218.1z"/>
	<path class="st1" d="M92.5,241.5c2.4,0.7,5.2,1.6,7.2,2.1c0,0,0,0,0,0c-2.1-1.5-4.7-2.7-7.6-3.5C92.2,240.5,92.4,241,92.5,241.5z"
		/>
	<path class="st1" d="M171.4,63.3l-2,2.8c2.9,0.7,6,1.5,8.6,1.9L171.4,63.3z"/>
	<path class="st1" d="M80.5,199.4c1.1,0.3,2.4,0.8,3.7,1.3l5.4-7.5c-2.8-1-5.8-2.3-8.7-3.6l-2.7,3.8c0.6,0.3,1.3,0.6,2,0.9
		c1.1,0.4,2.3,0.8,3.4,1c-0.1,0.2-0.3,0.3-0.4,0.4c0.1,0,0.2,0.1,0.3,0.1c-3,0.9-0.4,1.7-3.4,2.1c-1.4-0.6-2.7-1.1-3.9-1.5l-0.1,0.2
		C77.8,197.4,79.3,198.5,80.5,199.4z"/>
	<path class="st1" d="M150.8,107.5c-0.2,0.8-3.2,1.6-5.2,2.3c0.5,0.4,2.3-0.1,4.2-0.7l3.6-5c-2.4,0.7-5.3,0.6-8.8,0.5
		c0.1-1.5,6.4-2.1,9.7-1.8L167.8,84c-3.5,0.2-7.3,0.2-11.3,0.1l-6.3,8.7c0.5-0.1,0.9-0.2,1.3-0.2c0.3,0.8-0.6,1.2-2.2,1.5l-11,15.3
		C144.1,107.6,148,107.2,150.8,107.5z"/>
	<path class="st1" d="M79.6,238.1c-2.4-0.7-5.7-0.8-8.4-1.3c0,0.2,0.1,0.3,0.1,0.5c2.2-0.2,5.3,1.4,9,3.4
		C80.1,239.8,79.9,239,79.6,238.1z"/>
	<path class="st1" d="M333.9,229.4c-0.4-0.8-1.4-1.4-1.5-2.1c0.3,0,0.5-0.1,0.8-0.1c-3.1-1-6.3-2.1-9.6-3.3c-0.2,0.7-0.5,1.3-0.7,2
		c1.8,1.4,3.2,3.4,4.7,5.1c3.6-0.5,8-1.2,12.1-1.8c-0.6-0.2-1.3-0.4-1.9-0.6C336.5,228.9,335.2,229.1,333.9,229.4z"/>
	<path class="st1" d="M246,286.2c0.9,0.5,1.8,1,2.6,1.4c0-0.3,0-0.5,0-0.8l-1.4-2.5C246.7,284.6,246.4,285.5,246,286.2z"/>
	<path class="st1" d="M343.7,222.9c1.3-0.2,2.6-0.4,3.9-0.7c-0.3-0.2-0.7-0.3-1-0.5c-1.1,0.1-2.2,0.3-3.3,0.4
		C343.6,222.5,343.7,222.7,343.7,222.9z"/>
	<path class="st1" d="M322.2,223.4c-1.8-0.7-3.6-1.3-5.4-2.1c-0.2,0.8-0.3,1.6-0.6,2.5c-0.4,1.3-1.3,2.9-1,4.2
		c0.2,0.9,1.6,1.7,2.4,2.5c0.4,0.4,0.8,0.9,1.1,1.2c0.1-0.4,0.4-0.8,1.4-1.1c2.8,1.3,3.7,2,4,2.6c1.3-0.2,2.5-0.4,3.3-1
		c-2.3-1.7-4.1-4-6.2-5.9C321.6,225.3,321.9,224.4,322.2,223.4z"/>
	<path class="st1" d="M323.3,220.6c-1.2-0.5-2.7-1-4.4-1.5c-0.1,0-0.2,0.1-0.3,0.1c1.5,0.8,2.9,1.5,4.3,2.3
		C323,221.2,323.2,220.9,323.3,220.6z"/>
	<path class="st1" d="M324.6,221.3c-0.1,0.3-0.3,0.7-0.4,1c1.3,0.7,2.5,1.5,3.6,2.2C327.4,223.3,326.3,222.2,324.6,221.3z"/>
	<path class="st1" d="M318.8,233.6c-2.1-1.6-4.2-3.1-6-5.1c1-2.3,1.4-5.1,1.9-7.8c0.1,0,0.2-0.1,0.3-0.1c-3.7-1.4-7.4-3-11.3-4.6
		c0.1,0.2,0.1,0.3,0.2,0.4c0.6,0.8,4.3,2,5.1,2.5c0.7,0.4,2.3,1.1,3.8,1.6c-0.8,0.3-1.6,0.6-2.4,1.1c-1.9-0.7-3.9-1.5-5.3-2.1
		c-1-0.4-2.5-0.5-3-1.1c-0.4-0.5-0.5-1.9-0.7-3.2c-2.3-1-4.6-1.9-7-2.9c0.2,1,0.3,2,0.5,3c0.4,0.2,0.8,0.5,1.2,0.7
		c-0.4,0-0.7,0-1.1,0c0.3,1.9,0.6,3.7,0.8,5.5c8.3,2.5,18.7,8.2,20.1,11.5c-3.2-1.3-5.8-3-8.4-4.2c-0.1,0.6-0.2,1.2-0.2,1.7
		c4.1,2.3,9.2,4.8,12.2,5.3c0.3-0.1,0.6-0.3,0.7-0.4l-3.5-0.9C318,234.2,318.5,233.9,318.8,233.6z"/>
	<path class="st1" d="M336,223.7c0-0.2,0-0.3,0-0.4c-1.5,0.2-2.9,0.4-4.4,0.7c0.4,0.8-1.5,0-2.1,1.3c0.4,0.1,0.8,0.2,1.2,0.3
		c-0.2-0.2-0.3-0.4-0.4-0.6c2.2-0.3,4.4-0.7,6.5-1C336.5,223.9,336.3,223.8,336,223.7z"/>
	<path class="st1" d="M343.8,225.5c-0.7,0-1.5-0.1-2.4-0.3c-2.5,0.4-5,0.7-7.4,1.1c0.7,0.2,1.4,0.3,2.2,0.5
		C338.7,226.4,341.3,225.9,343.8,225.5z"/>
	<path class="st1" d="M339.3,222.8c-0.5,0.1-1.1,0.2-1.6,0.2c0.7,0.1,1.5,0.3,2.3,0.5c0,0,0,0,0.1,0
		C339.7,223.3,339.5,223,339.3,222.8z"/>
	<path class="st1" d="M345.6,225c-0.1,0.1-0.2,0.2-0.3,0.3c0.4-0.1,0.8-0.1,1.2-0.2c1.4-0.2,3.3-0.1,4.2-1.1
		c-1.9,0.2-3.8,0.5-5.7,0.7C345.1,224.8,345.3,224.9,345.6,225z"/>
	<path class="st1" d="M204.5,311.7l7.6,5.4l1.3-1.8c-0.7-0.6-1.3-1.2-1.8-2.1C209.4,312.9,211.6,315.2,204.5,311.7z"/>
	<path class="st1" d="M164.7,327.3c0-0.3,0.1-0.6,0.1-0.8c-0.5-0.1-1-0.1-1.5-0.2C163.7,326.5,164.1,326.8,164.7,327.3z"/>
	<path class="st1" d="M163.7,296c0,0-0.6,0.7-1.6,1.3c-2-4.1-7.1-7.1-11.1-9.8l-1.7,0c5.8,3.8,1.8,11.7,0.1,12.5
		c-0.9-1.8-2-3.5-3.3-5.3c-1.4-1.9-2.7-3.9-3.1-7.1l-0.7,0c1,7.8-2,12.4-7.6,14.8c-2-4.4-1.4-10.9,1.4-13.9c1-1.1,1.9-3.3,2.9-4.3
		l-0.2-0.7c-1.4,1.1-2.9,2.1-4.2,3c0.4,0.1,0.7,0.2,1,0.4c-0.7,0.4-1.6,0.6-2.7,0.6c-0.3,0.2-0.6,0.3-0.9,0.4c0-0.2,0-0.3,0-0.5
		c-0.8,0-1.6-0.1-2.4-0.3c-0.4,1.9-0.7,3.9-0.4,6c1-0.5,1.8-0.2,2.7-1.7c0.5,3.3-6.7,8.4-7.3,9.1c0-0.4-0.1-0.7-0.1-1.1
		c-1.6,0.1-2.5,1.2-3.2,2c-0.1-0.4-0.2-1.3-0.3-1.6c-2.4,0.2-3.7,1.9-4.6,3.1c-0.1-0.5-0.1-0.8-0.3-1.5c-3.4,1.1-4.5,3.5-7,4.9
		c-1-7.7-0.7-19.5,0.1-21.1c-0.5-0.1-1.2-0.2-1.7-0.1c1.2-2.6,2.3-5.4,4.4-7.3c-1.2,0-2.5,0.3-3.9,0.8c0.7-1.6,1.5-3.1,2.5-4.6
		c1.6-1.1,4-2.7,5.4-3.1c0.1,0,0.3-0.1,0.6-0.1c0.2-0.3,0.4-0.7,0.7-1c-1-0.1-1.8,0-2.1,0.1c-0.6,0.3-1.9,1.1-3.1,1.9
		c0.7-0.8,1.3-1.6,2.1-2.4c0.3-0.3,0.4-0.6,0.7-0.8c0.1-0.1,0.3-0.3,0.5-0.4c0.7-0.7,1.6-1.3,2.5-2l2.4-0.2c0.1-0.2,0.3-0.5,0.4-0.7
		c-0.2,0-0.5,0-0.7,0.1c-0.1,0-0.5,0.1-1.1,0.2c0.5-0.3,1-0.7,1.6-1c0.1-0.1,0.2-0.1,0.3-0.2c0-0.1,0.1-0.1,0.1-0.2
		c-1.2,0.3-1.7,0.6-1.7,0.6l1.2-0.8c0,0,0.3-0.1,0.8-0.4c0.1-0.2,0.3-0.5,0.4-0.8c-0.2,0.1-0.4,0.2-0.6,0.3
		c-9.5-5.5-19.1-8.3-19.1-8.3c-0.8-3.3-1.3-6.9-1.9-10.4c-1.5,0.5-3.7-0.4-6.9-1.4c0.4,1.4,0.7,3,0.9,4.9c0.2,1.4,1.1,4,0.8,5
		c-0.2,0.7-1.6,1.3-2.5,2c-0.7,0.6-1.5,1.3-2.4,2c1.2,0.9,2.4,1.8,4.9,2.6c-1.2,1-7.3-1.4-6.4,0.9c-1.4-0.7-2-1.4-2.6-2
		c-0.2,0-0.3,0-0.5,0c0.1-0.1,0.2-0.1,0.3-0.2c-0.1-0.1-0.3-0.3-0.4-0.4c-1,0.3-2.8-0.6-4.6-3.2l2.9-1.9c1.4,1.4,2.1,2.6,2.3,3.5
		c0.8,0.1,1.6,0.2,2.1,0.1c0.1-0.1,0.2-0.2,0.3-0.3c0,0,0-0.1,0-0.1c0,0,0,0,0.1,0c0,0,0.1-0.1,0.1-0.1c0.6-0.6,3.4-2.7,4-3.8
		c-2.5-1-5.4-3.6-7.6-5.2c0.3,0.8,0.6,1.5,0.9,2.3c-2.6,3.3-6.1,5.5-9,8.4c0.4,0.7,5.4,2,6.9,2c1.3,2.4,2.6,4.9,4.3,6.7
		c-0.9,2.1-2.2,4-3.5,5.9c0.2,0.3,0.4,0.5,0.7,0.8l-1.1,0.7c1.4,0.5,3,0.9,4.7,1.3c0,0,0.1,0,0.1,0c0.5-0.2,1.2-1.1,1.7-2
		c-0.5-0.3-1.3-0.7-2.3-1c0.9,0,1.8,0.1,2.6,0.3c0.3-0.5,0.5-0.9,0.6-1.2c0.4-0.7,2.3-3.2,2.3-4.1c0-0.7-1.4-3.1-1.8-3.9
		c0.4,0,0.8,0.3,1.1,0.2c0.2,0,0.5-0.3,0.7-0.4c0.1,0.3,0.3,0.5,0.4,0.8c0.5,1,1.7,2.9,1.7,3.7c0,0.6-1,1.4-1.5,2.2
		c-0.6,0.9-1.3,2-2,3.1c1.8,0.6,3.6,1.5,5.4,2.2c0.6-0.8,1.2-2.1,1.6-2.7c0.9-1.4,1.8-2.5,2.5-3.6c4,0,7.5,0.3,10.7,0.8
		c-2.6,3-6.4,9.8-6.6,10.9c0.7-0.2,1.3-0.4,1.6-0.4c-1.5,3-3.4,5.7-5.3,8.4c1.4-0.4,3.4-0.7,5.2-0.8c-0.2,7.4-0.7,15.8,0.5,23.2
		c2.4-1.6,4.6-4.4,7.8-5.8c0.1,0.4,0.3,0.8,0.4,1.2c1.2-0.9,1.7-2.2,3.4-2.6c0.6,0.3,1,0.6,1.6,1c0.8-0.5,1.6-1.1,2.4-1.6
		c0.3,0.2,0.5,0.4,0.9,0.8c2.3-1.6,5-3.7,6.5-5.5c0.1,3.7,1,6.5,1.6,9.6c0.6,0,1-1,1.3-0.8c0.1,3,0.6,5.4,1.4,7.5
		c1.9,0.9,4.2,2,6.5,2.8c0-3,2.2-5.3,2.9-7.7c0.8,0.6,3.9,4.4,3.9,4.4s-0.3,3.6-5.5,8.2c-0.3-1.5-1.1-2.5-1.3-3.8
		c0-0.2-0.1-0.4-0.1-0.7c-0.9-0.2-1.8-0.4-2.8-0.6c1.4,2.9,2.7,5.8,3.7,9.1c0.7-0.5,1.8-1.8,1.8-1.8s2.9,6.4,7.1,11.3
		c1.1-1.6,1.8-3.4,2.8-5c0.7,1.1,1.2,2.6,1.9,3.8c3.1-1.9,4.7-5,7-7.6c-1-0.2-2-0.5-2.8-0.8c-1.1,1.8-2.1,3.5-4.2,4.6
		c-1.8-1.6-1.8-3.9-1.8-3.9s1.2,0.6,1.8,1c0.5-1.7,1.2-3.3,2-4.8c0.7,0.6,1.3,1.3,1.9,1.9c1,0.1,2.7,0.4,5.2,1
		c0.6-2.9,1.6-5.4,2.3-8.3c-0.5-0.2-0.9-0.3-1.2-0.3c-0.5,1.8-1.2,4.1-1.9,5.6c-1.8-0.9-3.3-2.4-4.9-3.5c0.3-1.1,0.6-2.1,0.9-3.3
		c-0.4-0.2-0.8-0.3-1.2-0.4c-0.3,1.2-0.8,2.5-1,3.3c-0.7,1.8-1.5,3.4-2.1,4.8c-2.6-1.5-5.1-3.2-7.5-4.9c0.3-1.1,0.6-2.1,0.9-3.2
		c0.6,1.3,1.4,2.1,2.2,3.3c0.6-1.6,1.3-3.1,2-4.5c-0.7-0.2-1.3-0.4-1.7-0.6c0,0,0,0,0,0.1c0,0-0.1-0.1-0.1-0.1c-3.5-1.5,0-1.9-6.1-4
		c0.8-0.2,2-0.1,3.5,0.1c-0.1-0.1-0.1-0.2-0.2-0.3c-0.9-1.2-2.4-3.3-3-4.1c0.2-0.8,0.6-3.2,0.6-5c0.9,1.1,1.8,2.2,2.6,3.4
		c2.5-2.9,4.4-6.3,4.3-11.4c1,0.6,2.1,1.3,3,2.4c0.9,6.8-0.6,11.5-2.8,15.7c0.5,0.1,1,0.2,1.6,0.4c0.3-0.6,0.5-1.2,0.7-1.8
		c0.1,0.7,0.9,1.6,1.7,2.5c2.6,0.7,5.2,1.5,7.7,2.3c0.1-0.9,0.1-1.8,0.2-2.7c0.5,1.4,1.5,3.2,1.5,3.2s0,0,0,0
		c0.6,0.2,1.2,0.4,1.8,0.7c0.2-4.2,0.3-8.4,0.4-12.7c0.4,0.1,0.6,0.3,1.1,0.8C168.7,298.1,163.7,296,163.7,296z M101.8,266.7
		c-1.4-2.5-2.7-5.2-4-7.9c1.2-1,2.4-1.9,3.3-2.7c7.6,2.1,13.6,4.9,18.1,7.6c-2.2,1.2-4.1,2.5-5.8,4
		C106.9,266.6,101.8,266.7,101.8,266.7z M153.2,325.3c-0.4,1.7-1.3,3-1.8,4.6c-2.5-1.8-5.9-7.6-5.9-7.6l1.1-1.7
		C146.6,320.6,150.9,323.8,153.2,325.3z M138.8,312.8c-1.4-2.1-2.6-5.5-1.8-8.6c2.7-2.4,5.6-4.7,5.8-9.2c0.8,1.3,1.7,2.4,2.6,3.6
		C145.4,305.1,143.3,309.9,138.8,312.8z M168.5,310.6c-0.9,0.7-2.8,0.2-4.9-0.7c0,0.4-0.1,0.8-0.1,1.2c-1.3-0.7-2.6-1.9-3.8-3.2
		c-1.3-0.7-2.6-1.4-3.5-2c0.4-0.4,0.8-0.6,1.4-0.6c0.2-3.3,0.6-6.3,0.3-9.9c1.4,1.4,2.6,2.9,3.8,4.7c0.8-1.1,2.1-1.7,2.7-3.1
		c0.3,3.5-0.2,7.1-0.6,10.6c1.1,0.6,2.1,1.3,3.1,1.9c-1.9-2.8-1.2-7-1-10.9c2.6,1.9,2.2,8,1.9,11.5
		C168.1,310.3,168.3,310.4,168.5,310.6z"/>
	<path class="st1" d="M259.7,311.6c0.5-0.7,0.7-1.1,1-1.6c-0.8-0.4-1.7-0.7-2.5-1.1C258.7,309.8,259.2,310.7,259.7,311.6z"/>
	<path class="st1" d="M279.5,289.5c-5.2-1.2-8.7-5.1-10.8-11.3c0.1-0.2,0.2-0.5,0.2-0.7c-0.8-0.5-1.6-0.9-2.5-1.4
		c-0.5,1.6-0.8,3.2-1,4.8c-1.3-0.2-4.3-3.5-5.1-6.5c-0.1,0.1-0.1,0.2-0.1,0.4c0.2,1,0.5,2.6,0.8,4c1.5,2.2,3.5,3.8,5.7,5
		c0.4-1.4,0.8-2.7,1.4-4.1c0.6,1.6,1.8,3.9,2.2,4.5c-0.2,0.5-0.4,1.4-0.7,2.3c1,0.7,1.9,1.4,2.9,2.1c0.2-0.4,0.3-0.7,0.5-0.9
		c1.1,1.5,2.9,2.7,4.2,4.4c1.1,0.7,2.2,1.4,3.5,2c0-0.4,0.1-0.9,0.1-1.3c0.8,0,1.4,0.3,1.9,0.8c0.6-1.9,0.9-4.1,0.7-6.5
		c-1.2-0.5-2.4-1-3.4-1.4C280,287,279.8,288.3,279.5,289.5z"/>
	<path class="st1" d="M270,314.9c0.1-0.3,0.1-0.6,0.1-0.9c-2.6-1-5.3-2.1-8.1-3.4C264.5,312.2,266.9,314.2,270,314.9z"/>
	<path class="st1" d="M278.4,295.1c0.2,1.3-0.2,2.5,0,4c-6.3-2.7-7.8-6-7.8-6s0.7-1.9,1.4-3.5c-0.9-0.7-1.8-1.4-2.8-2.1
		c-0.2,0.5-0.3,1-0.5,1.4c-0.6,1.9-0.7,3.5-1.4,5.1c-3.6-3.1-7.9-5.9-10-11.6c-0.5,0.1-0.2-0.2-0.5,0.2c0.8,2.1,1.7,4.1,2.6,6.1
		c-1.1,2.4-2.2,5.4-3.9,7.2c-1.6-4-3.8-7.8-5.1-12c-0.4-0.2-0.7-0.4-1-0.4l-0.3,1.4c0,0,0,0,0,0c1.7,4.1,4.1,8.4,2,11.9
		c-0.9-2.1-2.3-5.4-2.7-8.2c-0.7-0.2-1.6-0.5-2.6-1c0.2,0.8,0.4,1.5,0.6,2.3c0.3-0.6,0.4-0.9,0.8-1.1c1.6,4.6,3.3,9,5,13.3
		c0.2-0.6,0.2-0.9,0.4-1.4c1,1.8,2.1,3.4,3.3,5c5.3,2.2,10.4,4.6,14.3,6.8c0.1-0.6,0.1-1.3,0.3-1.9c1.5,1.2,2.8,2.7,4.3,3.8
		c2.3-6,3-13,3-13s1.5,0.9,2.3,1.2c-0.1-2.9,0.1-5.7,0.4-8.3c-0.7,0.1-1.6-0.2-2.5-0.6C278.2,294.1,278.4,294.6,278.4,295.1z
		 M258.5,306.5c-2.2-2.3-5.2-7.1-5.2-7.1s0.4-2.1,0.4-3.5c0.9,2.3,1.8,4.5,2.9,6.4c1.2-1.7,2-2.9,2.7-4.6c1,1.4,1.9,2.6,2.8,3.9
		C260.8,303.3,259.9,305.1,258.5,306.5z M268.7,311.2c-2.6-0.4-4.1-1.9-5.9-3.4c0.6-1.2,1.1-2.2,1.7-3.3c1.2,1.2,2.4,2.5,3.4,3.9
		c0.5-0.5,1.4-1.5,1.4-1.5S269.9,309.2,268.7,311.2z M266.7,304.7c-1-1.2-2.3-2.4-3.5-3.9c-1-1.2-3.3-4.5-3.3-4.5s2.3-3.9,2.1-5.4
		c2.2,2.9,4.9,4.9,7.3,7.9c0.4-1.4,0.8-2.5,1-3.9c0.7,1,1.3,1.8,1.9,2.8C270.4,300,268.6,302.4,266.7,304.7z M273.1,309.8
		c-1-1.4-2.3-2.3-3.2-3.8c1.7-2.1,4.8-6.5,4.8-6.5l1.6,1.2C276.2,300.6,274.9,307.2,273.1,309.8z"/>
	<path class="st1" d="M314.7,236.9c0.4,0,1.2-0.1,2.2-0.4c-1.6-0.4-3.3-0.9-5-1.4C312.8,236,314,236.9,314.7,236.9z"/>
	<path class="st1" d="M74.9,266.6c-2.2-0.1-5.3-1-8-1.9c-1.2,0.2-2.5,0.4-3.8,0.7c-4.8,1.1-9.9,1.6-14,3.1c4-0.5,10.6-1.6,15.3-2.4
		c1.1-0.2,2.4-0.9,3.4-0.8c1,0.1,1.4,1.5,2,1.9c-7.6,1.5-15.6,2.6-22.5,4.5c7.2-0.7,14.6-2.4,22.5-3.7c0.1,0.5-0.5,1.4-0.8,2
		c-6.3,1.2-12.6,2.3-18.7,3.6c1.2,0.7,2.9,0,4.3-0.3c4.5-0.8,9.4-1.5,13.9-2.4c0.2,0.6-0.6,1.6-0.8,2.4c-4.4,0.4-9.1,1.7-13.5,2.5
		c1.2,1,3.1,0.1,4.7-0.2c4.9-0.9,10.7-1.9,15.2-2.8c0.8-1.9,1.4-3.9,2.4-5.7C76.2,267,75.6,266.8,74.9,266.6z"/>
	<path class="st1" d="M74.9,274c1.3,0.4,3.3-0.1,5.2-0.5c-1.3-0.3-2.7-0.6-4.3-0.9C75.5,273.1,75.2,273.6,74.9,274z"/>
	<path class="st1" d="M67.5,252.6c0.1-0.1,0.2-0.2,0.2-0.3c-1.4-0.3-2.9-0.6-4.3-1c-0.3-1.4,2.1-0.9,5.1,0c1-1.3,2-2.7,3.2-3.9
		c-0.2-1.6,1-2.3-1.6-5.2c0.4-0.1,1,0.4,1.7,1.1c-0.8-2-1.7-3.9-2.9-5.7c-2.8-0.3-5.8-0.3-8.7-0.4c-5.7-0.2-11.4-2.2-16.6-1.2
		c5.6,1.3,11.7,1.3,17.4,2.1c0.8,0.6,1.1,1.5,1.3,2.4c-1.8-0.1-3.5-0.4-5.4-0.5c-3.5-0.2-7-0.7-10.4-0.9c0.2,0.3,0.2,0.6,0.2,0.9
		c3.9,0.5,8.1,1,11.5,1.3c1.3,0.1,3.2-0.2,4.3,0.3c1.1,0.5,1.1,2.2,1.7,2.9c-9.3-0.8-19.1-2.2-27.9-2.3c8.7,1.6,17.9,2.2,27.6,3.2
		c-0.1,0.6-1.1,1.5-1.6,2.1c-7.7-0.8-15.5-1.6-23.1-2.1c1.1,1.3,3.4,1,5.1,1.2c5.6,0.6,11.6,1.4,17.1,1.9c0,0.8-1.3,1.7-1.7,2.6
		c-5.3-1-11.2-1-16.7-1.6c1,1.5,3.6,1.2,5.6,1.4C54.8,251.3,61.9,252,67.5,252.6z"/>
	<path class="st1" d="M82.4,274.4c0.2,0.2,1.1,0.3,2.2,0.3c-0.7-0.2-1.3-0.4-2.1-0.6C82.5,274.2,82.5,274.3,82.4,274.4z"/>
	<path class="st1" d="M42.6,238.8c-0.8,0-1.5,0-2.2,0c0,0.1,0,0.1-0.1,0.2c0.7,0.1,1.4,0.2,2.1,0.3C42.5,239.2,42.6,239,42.6,238.8z
		"/>
	<path class="st1" d="M137.1,317.6c0.3-0.6,0.7-1,1.3-1.3c-0.8-0.2-1.7-0.5-2.5-0.8C136.2,316.2,136.6,316.9,137.1,317.6z"/>
	<path class="st1" d="M91.5,275.5c1.8-0.1,3.5,0.3,4.9-0.3c-1.6-0.3-2.8-0.4-5.7-0.5C91.1,275,91.4,275.3,91.5,275.5z"/>
	<path class="st1" d="M287.5,147.8c-0.7-0.2-1.5-0.5-2.3-0.8c-0.6,0.1-1.5,0.1-1.7,0.5c3.6,0.8,8.3,3.6,12.1,4.8l-5-3.6
		c-1.2-0.3-2.3-0.6-3.2-0.8C287.4,147.8,287.4,147.8,287.5,147.8z"/>
	<path class="st1" d="M318.5,205.1c-0.7-0.3-1.4-0.6-2.1-0.9c-0.2,0.1-0.4,0.4-0.3,0.7c-1.9-0.4-3.3-0.7-4.4-1c0,0.4,0,0.8,0,1.2
		c0,1.6-0.6,3.8,0.3,5.2c0.6,0.9,2.4,1.4,3.7,2.1c2.1,1.1,3.3,2.5,5.1,2.7c2.3-1.3,5.7-2.3,7-3.9c-3.3-1.2-6.2-3.3-9.3-4.8
		C318.5,205.8,318.5,205.4,318.5,205.1z"/>
	<path class="st1" d="M288.8,210c-2.8-1.2-5.7-2.4-8.6-3.7l-1.5,2.1c2.7,0.7,5.9,1.9,8.9,3.3L288.8,210z"/>
	<path class="st1" d="M305.9,228C305.9,228,305.9,228,305.9,228c-1.2-0.5-2.5-0.9-3.8-1c0.7,0.6,2,1.4,3.6,2.4
		C305.8,228.9,305.9,228.4,305.9,228z"/>
	<path class="st1" d="M280.5,221.5l3.8-5.4c-2.1-1.6-5-2.9-8.2-4.2l-5.4,7.5c3.4,1.3,5.8,2.3,7.5,1.2
		C279.4,220.7,280.1,221.1,280.5,221.5z"/>
	<path class="st1" d="M283,147.4l-3.2-0.9c-2.6-2.4,3.4-1.1-5.1-2.7c-0.2-1,0.7-1.2,1.5-1.4c-2.7-1.6-5.5-3.4-8.3-5.2
		c-0.1,0.7-0.3,1.5-0.4,2.2c2.2,1.2,3.4,3.2,5.1,2.2c1.9,0.9,0.6,1-0.3,0.6c-0.7,0.5-0.2,1.2,1.1,1.9c-1.3-0.1-3.3-1.1-6.3-2.3
		c-0.1,0.7-0.2,1.1-0.3,1.2l14.5,10.4c3.2,0.3,9.6,2.8,13.3,3.5c-3,1.5-7.6-0.9-11.9-2.5l14.1,10.1c5.4,0.6,13.6,4,19.2,7.4l2.3-3.2
		L302.2,157c-7-2.9-14.3-6.1-22.2-9.4C280.8,147.2,281.9,147.2,283,147.4z M314.5,168.8c-2.1,1.5-8.8-2.7-12.4-4.6
		C304.3,162,310.5,166.3,314.5,168.8z"/>
	<path class="st1" d="M268.4,135.2c3.4,2.3,6.8,4.8,10.6,7.1c2.1,0.6,2.8,1.2,3.3,1.9c1.8,1,3.7,2,5.7,2.9c0-0.1,0-0.2-0.1-0.3
		l-19-13.6C268.8,133.4,268.6,134.2,268.4,135.2z"/>
	<path class="st1" d="M276,246.9c-0.6-0.8-1-1.4-1-1.9c-2.5-0.7-4.7-0.9-6.5-0.9c0.8,0.5,1.5,1,2.1,1.5
		C272.4,245.9,274.2,246.3,276,246.9z"/>
	<path class="st1" d="M275,229.2l3.7-5.2c-0.4-0.1-0.8-0.2-1.2-0.3c-1,1.4-5.3,2.8-8.9,4.1C271.4,228.9,273.4,229.8,275,229.2z"/>
	<path class="st1" d="M273.7,237.2c0-0.3,0-0.6-0.1-1c-2.4,0.2-4.8,0.6-7.2,1.3c-1.7,0.5-3,1.3-4.2,2.2c0.4,0.3,0.8,0.5,1.1,0.8
		c1.3-0.9,2.8-1.6,5-2.2C270,237.9,271.9,237.5,273.7,237.2z"/>
	<path class="st1" d="M268.5,242.4c0,0,3-1.9,5.2-3.2c-0.2-0.8-0.1-1.3,0-2C270.5,238.8,268.5,242.4,268.5,242.4z"/>
	<path class="st1" d="M294.9,251c-0.3-0.2-0.7-0.3-1-0.4c-0.4,0.2-0.8,0.5-1.1,0.7c0.3,0.1,0.6,0.2,0.9,0.3c2.6,0.9,4.3,1.6,4.3,1.6
		S297.8,252.5,294.9,251z"/>
	<path class="st1" d="M281.7,249.5c2,1.2,3.4,1.7,4.6,1.8c-0.6-0.5-1.3-1-1.9-1.5c-1.8-1.4-3.5-2.4-5.3-3.2
		C280.1,247.5,280.9,248.5,281.7,249.5z"/>
	<path class="st1" d="M288.8,250.5c0,0,0.4,0.1,1.2,0.2c0.4-0.2,0.8-0.3,1.3-0.4C289.8,250.2,288.8,250.5,288.8,250.5z"/>
	<path class="st1" d="M263.2,232l0.5,1.3c0.6-0.2,1.2-0.4,1.7-0.6c0.1,0,1.9,1.4,2,1.4c1.7-2.2,3.7-1.8,5.9-2.4l0,0
		c-2.9-0.8-6.3-1.9-9.3-2.7l-0.5,0.7c1.6,1.1,3,2.2,3.7,2.7C266.6,232.8,265.2,232.6,263.2,232z"/>
	<path class="st1" d="M240.1,123.8l4.6,3.3c1.7-0.7,5,0.1,8.6,1c0.1-0.2,0.3-0.4,0.4-0.6c-1.5-1-2.9-1.9-4.1-2.6
		c1.6,0.5,3.2,1,4.7,1.7c0.8-1.1,1.5-2.1,1.9-2.6l-4.9-3.5c-4.1-1.6-7.9-3.1-6.4-4.2l1.3,0.6l-13.5-9.7c-0.7,0.3-1.8,0.2-2.5,0.6
		c3.1,3.5,4.9,6.9,9.5,11.5C238.3,119.5,238.7,121.2,240.1,123.8z"/>
	<path class="st1" d="M283.8,242.5c-1.9,0.9-3.6,1.9-3.6,1.9s3-1,5.1-1.6C284.9,242.7,284.4,242.6,283.8,242.5z"/>
	<path class="st1" d="M300.3,207.2c-0.5-0.1-1.2-0.2-1.8-0.4c-1.3,1-2.4,2.1-3.4,3.3c1.9,0.5,3.9,1,5.7,1.7
		C300.6,210.1,300.4,208.7,300.3,207.2z"/>
	<path class="st1" d="M304.8,265c-0.5-0.1-1-0.3-1.5-0.5c0.8,2.4,1.5,4.9,2,7.2c0.6,0.3,1.2,0.6,1.9,0.9
		C306.5,270.1,305.7,267.5,304.8,265z"/>
	<path class="st1" d="M293.4,264.5c1.7,2.5,3.6,5,3.6,5s-2.7-5.6-3.5-7.1c-0.8-1.5-2.8-3.5-2.8-3.5S291.7,262.1,293.4,264.5z"/>
	<path class="st1" d="M290.4,256.1c0.7,0.6,1.5,1.1,2.1,1.6c1.4,1.1,2.7,2.3,3.8,3.5c0.6,0.1,1.2,0.2,1.9,0.4
		c-1.5-1.9-2.6-2.9-5-4.9C292.2,256.6,291.3,256.4,290.4,256.1z"/>
	<path class="st1" d="M308,234c-2.4-0.7-5-1.6-7.8-2.6c-0.1,0.9-0.3,1.7-0.4,2.5c0,0-4.9,1.6-10.7,4.7c-2.1-0.9-4.4-1.5-6.8-1.9
		c2.6-3.1,6.1-6.5,10.6-10c-0.4-0.3-0.8-0.6-1.3-0.9c-3,2.5-7.1,6.2-11,10.6c-1.8-0.2-3.6-0.3-5.4-0.2c0.3,0.2,0.5,0.5,0.7,0.6
		c0.4,0,0.6,0,0.8,0c0,0.1-0.1,0.2,0,0.2c0.2,0.3,0.3,0.6,0.5,0.9c1.4-0.3,2.8-0.4,3.8-0.5c0.1,0,0.1,0-0.1,0
		c0.2,0.1,0.5,0.1,0.7,0.2c0.5,0.1,1.1,0.3,1.6,0.4c-0.2,0.1-0.5,0.2-0.7,0.2c-1.8,0.2-3.5,1.4-3.9,1.7c0,0,0.1,0,0.1,0l6.3-1.7l0,0
		l-0.5,0.1c1.1,0.3,2.2,0.7,3.1,1.1c0.2,0.1,0.4,0.1,0.6,0.2c0.3,0.2,0.6,0.4,0.9,0.6c1,0.5,1.9,1.1,2.9,1.7c-1.3-0.4-2.8-0.7-4-0.8
		c-0.2,0-0.6,0.1-1.1,0.2c0.3,0.1,0.7,0.2,1.1,0.4c0,0.2,0,0.4-0.1,0.6c1.5,0,4.4,0.7,6.4,1.3c1.3,1.1,2.5,2.2,3.6,3.4
		c-1.4,0-2.8,0.2-3.9,0.5c2.6,1,4.5,3.4,6.5,5.5c-0.5,0.1-1.2,0.4-1.6,0.7c0.7,0.7,2.4,4.6,3.9,9.2c0.5,0.1,1,0.3,1.5,0.4
		c-1.1-2.9-2.2-5.8-3.2-8.5c1.7-0.5,3.7-0.9,5.2-0.9c-2.7-1.9-5.4-3.8-7.7-6.2c0.2,0,0.9-0.1,1.6-0.1c-0.5-0.9-6.3-6.1-9.7-8.2
		c2.8-1.5,6-2.9,9.8-4.2c1,0.8,2.2,1.5,3.5,2.6c0.9,0.7,2.4,2.4,3.5,2.6c0.7,0.1,1.5-0.1,2.2-0.3c0-0.7-0.3-1.4-1.8-2.9
		c0.8,0.1,2,1.1,3.1,2.4c1-0.4,2-0.7,3-0.8c0-0.2,0.1-0.2,0.1-0.4C312.2,237.3,309.7,235.3,308,234z"/>
	<path class="st1" d="M92.9,188.6c-2.6-1.4-5.1-3.6-8.4-3.9l-1.7,2.3c2.9,1.5,5.6,2.8,8.5,3.9L92.9,188.6z"/>
	<path class="st1" d="M93.2,188.2l0.7-0.9l-2.4-0.6C91.5,187.2,92.1,187.7,93.2,188.2z"/>
	<path class="st1" d="M78.3,202.6c1.5,0.5,2.7,0.9,3.6,1.3l0.4-0.6c-2.9-1.2-5.8-2.4-8.6-3.8l-1.3,1.8c1.2,0.1,3.3,0.8,5.5,1.6
		C77.9,202.9,78,202.8,78.3,202.6z"/>
	<path class="st1" d="M144.1,112.9l2.5,0.7l2.3-3.2C147.2,111.2,145.3,112.1,144.1,112.9z"/>
	<path class="st1" d="M96.4,183.6l0.3-0.4c-0.3-0.7-2.5-1.9,0.7-1.6c0.1,0,0.3,0.1,0.4,0.1l3.6-5c-1.7-0.4-3.4-0.8-4.6-1
		c1.3-0.1,3.3-0.2,5.4-0.1l32.5-45.3c-2.5-0.8-5.3-1.9-8.7-3.5l-1.8,2.5c1.1,0.2,2,0.2,2.5-0.1c1.2,0.9,2.5,1.8,4.8,2.8
		c-0.8,0.6-7.7-2-0.6,1.1c-0.7,0.8-4.4-1.1-7.6-2.6l-4.9,6.9l8.1,2.2c1.5,1.9-6,0.3-8.8-1.2l-10.7,15c3.2,1,6.1,2,7.2,2.7
		c-1.9,0.2-5.1-0.2-8.4-1l-18.8,26.2c3.5,0.8,6.7,1.4,7.8,2.3C95.6,183.7,96.1,183.7,96.4,183.6z"/>
	<path class="st1" d="M95.6,184.8c-0.4,0-0.9,0-1.4-0.1c-0.1,0.3,0.2,0.7,0.7,1L95.6,184.8z"/>
	<path class="st1" d="M174.4,76.7l4.3,3.1c2-0.2,4.1-0.3,6.1-0.4C181.5,78.3,178,77.5,174.4,76.7z"/>
	<path class="st1" d="M214.8,155.5c0,0,10.9-15.6,10.4-16.5c-8,5.4-17.5,6-17.5,6c-1.4-3.5,1.2-8.1,0.5-10.8
		c-0.6-2.1-2.9-2.3-3.3-4.3c-0.4-4.9,15-17,15.1-19.2c-9.2,2.3-23.8,2.8-27,10.6c-1.9-1.7-4.9-2-6.4-4.3c-0.7-1.1-0.8-2.7-1.4-3.9
		c-1.6-3.2-4.2-5.4-6-8c1.4-5.3,5.4-8.8,8.4-13c-12.6-1.7-22.4,6.1-27.2,13.6c-0.9,2-1,3.3-2.1,6.4c0,0,0,0,0,0c0,0,0,0.1-0.1,0.1
		c0,0.1-0.1,0.2-0.1,0.3c-1,2.9,0.5,8.3,0.3,12.4c-0.2,2.1-1.7,4.3-0.8,6c0.6,1.2,2.5,0.8,2.9,1.9c-0.2,6-1.8,12.6,0,18.8
		c0.9-5.7,0.2-12.7,4.9-15.7c-0.2-1.1-2-0.3-1.3-1.8c1.3-1,6.3,2,7.7,0c-0.2-2.3-2.8-1.6-4.2-2.1c-2.4-0.8-4.3-3-6.5-3.8
		c0.6-13.2,3.9-24.4,15.4-29.8c0.6,1.6-3.3,7.6-2.3,10.7c0.4,1.2,2,1.6,3,2.6c2.6,2.6,5.3,7,7.3,10.1c6.9,4.1,14,8,19.1,14.6
		c-0.6,2.3-0.9,6.1,0.5,9.1c-1.6,0.3-3.5-0.1-5.1,0.1c-3.6,4.1-1.7,17.2,4.6,17.2c2.9,0,5.5-2.8,7.8-4.1c0.6,0.8,1.3,1.6,1.7,2.6
		c-1.4,1.5-3.6,2.4-5.6,3.5c-1.1,3.1-2.7,5.9-2,9.9c1.9,10.3,14.5,16.3,27.3,10.6c1.4,1.4,1.8,2,3.3,4c1,1.4,1,2.1,1.9,4
		c0.6,1.2,2.9,2.7,3.5,4.2c0.5,1.3,1.3,4.6,1.8,6.2c-4.7,6.2-14.9,8.2-23.4,11.7c-16.8-2.8-38.7,0.9-53.9-4.2
		c3.3-10.7,14.6-17.7,22.6-25c-3.1-1.3-5.2,2.2-7.3,3.8c-6.7,5.1-15,10.2-20.4,16.5c-1.6,1.9-2.3,4.2-4.2,5.6
		c-3.2-2.5-4.4-6.8-5.9-10.8c-1.5-4-3.8-8.1-4.9-12.3c-0.8-3.2,0.2-6,0.1-9c0-1-0.9-2.2-0.8-3.2c0.1-1.5,2.1-2.8,3.1-4.6
		c0.9-1.7,1.3-3.7,2.4-5.6c2.2-3.4,4.1-5.7,7.1-8.4c-0.6-1.1-2.8,1-3.6-0.2c-1.5-3.2-0.6-6.2-0.7-9.2c0,0,0,0,0,0c0,0,0-0.1,0-0.1
		c0-1.1-0.2-2.2-0.6-3.3c-0.8-2.7-2.2-2.5-6.4-1.3c-3.4,0.9-9.4,2-12.1,4c-2.6,2-3.1,6.2-5.9,8.8L113,169.2c-1.1,1-2.2,2-3.3,3
		c9.5-0.9,18.1-8.5,24.6-14.8c5.5-5.4,10-7.4,16.9-8.5c-1,2.4-2.1,4.6-1.9,7.3c0.1,0.9,1,2.4,0.8,3.5c-0.2,1.4-2.4,2.5-3.5,3.7
		c-1.2,1.2-1.8,2.9-2.9,4.3c-2.1,2.6-5.4,4.3-6.3,7.2c2.6,10,8.3,19.7,10.9,30.3c0.6,2.5,1.3,5.4,0.6,8.1c-1.5,1-3.5,0.5-4.4-0.3
		c-2.4-5.2,1.8-7.5,0.8-12.5c-1.6,3.7-4.2,7-5.7,10.9c-0.3,0.8-0.5,1.6-0.7,2.4c0.2,0.1,0.3,0.3,0.5,0.4c9.4,8.4,21.1,14,33.9,15.8
		c2.4-3,4.4-5.7,7.1-7.6c10.2-1.7,20.3-1.6,29.1-1.2c3.1,0.2,8.2,1,10.5,0.1c2.3-0.8,11.7-6,14-6.8c5-1.8,5.3-2.2,7.1-2.9
		c3.7-1.2,5.7-7.7,5.1-10c-2.2-8.8-4.7-11.3-9.8-18.4c0,0,9.4-1.2,32.8-62.6c0.3-0.7,0.1-3.3-0.4-2.7
		c-19.6,27.4-50.9,40.6-50.9,40.6C217.4,158.4,215.3,156.2,214.8,155.5z M195,122.8c-0.2-5.7,9.2-7.5,15.6-8.5
		c-0.8,2.2-2.2,5.3-5.1,6.9C203.1,122.4,196.1,120.8,195,122.8z M202.3,158.1c-4.2-0.9-4.2-7.3-2.9-11.1c3.8,1.6,18.4-1.9,23.3-5.7
		c-0.5,1.9-8.8,11.6-8.8,11.6C210.1,156.5,205.8,158.9,202.3,158.1z M217.6,183.4c-3.1,0.5-9.1-5.1-10-9.1c-0.7-3.1,0.8-5.7,1.1-8.5
		c0,0,42.3-20.1,56.2-40.4C242.8,169.9,239,179.9,217.6,183.4z"/>
	<path class="st1" d="M172.7,114.2c0.4-3.2-1.1-6.4-1.8-9.5c-0.2,0-0.3,0.1-0.5,0.1c-0.4,0.1-0.5,0.6-0.6,0.9
		c-2.3,4.9-5.7,16.6-2,21.9c1.7,2.4,5,5,7.6,5.7c1.5-3.6,4.1-7.5,3.4-11.9c-2.2,0.4-2.6,2.1-4.4,2.8c-0.7-2.6-2.6-4.8-2.5-7.6
		C171.8,115.8,172.6,115.1,172.7,114.2z"/>
	<path class="st1" d="M169.4,147.5c3.5,1.4,7.6,4.2,9.8,6.6c0.8,0.9,2.2,2.3,1.7,3.9c-3.2-0.6-3.9-4.6-7.9-4.1
		c1.6,1.8,3.7,2.8,5,5.1c-1,1,0,3.6-0.2,5.2c-1.5-0.4-2.2-2-4.2-1.9c2.3,4.6,7.2,8.2,12.6,9.5c0.4,1.2,1,2.2,2,2.7
		c1.4-0.1,0.5-1.8,1.1-2.5c0.7,0.2,0.6,1.5,1.7,1c-1.2-5.4-2.7-8.3-3.2-13.1c-0.3-3.4-0.3-6.7-1.1-10.1c-8.4-0.2-14.8-3.2-21.9-5.1
		C165.5,146.7,167.8,146.9,169.4,147.5z M185.4,168c-0.2-0.4,0.1-1.3-0.5-1.2C185.3,165.8,186.9,168,185.4,168z M182.1,166.8
		c-1.5-0.6-0.9-3.8-1-4.7c0.8,0.4,1.2,1.4,1.9,2C182.7,165,181.8,165.5,182.1,166.8z"/>
	<path class="st1" d="M170.9,172.2c2.6,1.9,6.3,1.3,10,1.4c-5.4-2.8-13-4.2-12.4-14.4c-0.1-0.2-0.2-0.2-0.5-0.2
		C167.2,163.5,167.5,169.8,170.9,172.2z"/>
	<path class="st1" d="M178.1,175.2c-3.2-0.1-7.3,1.1-10.8,1.5C169.9,177.4,176.5,178.5,178.1,175.2z"/>
	<path class="st1" d="M227.9,189.9c1.6-0.5,4.2-1.8,4.4-3c-14.6,4.3-23.5-2.2-28.5-12.2C206.1,185.7,215.9,193.5,227.9,189.9z"/>
	<path class="st1" d="M210.3,202.5c1.7,1.6,4.9,2.4,7.6,1.7c5.1-1.5-4.2-9.2-8.5-10.2c-3.8,3,3.2,6.4,5.5,7.9
		C215.9,202.5,213.5,203.2,210.3,202.5z"/>
	<path class="st1" d="M193.7,205.5c0.5,0.9,2.9,1,2.9-0.3C196,204.9,194.7,205.4,193.7,205.5z"/>
	<path class="st1" d="M190.3,198c-3.8-0.9-7.3,0.1-11.1,0.8c-2.5,3.2-6.4,6.5-7.4,10.2c8,0,15.4,2.7,23.9,2
		c4.6-0.4,9.6,0.7,14.5,0.4c5.2-0.3,11-0.8,15.4-2.1c2.2-0.7,4.8-1.4,6.3-3.4c-10,1.8-19.8,2-27.1-0.8
		C199.7,203.1,195.8,199.3,190.3,198z M196.3,208.5c-1.5,1.6-4.8,1.2-7.1,1c-0.2-1.3-1-1.8-1.8-2.2c-1.1,1.4-2.8,1.4-4.7,1
		c0.1-0.8,0.3-1.2-0.1-2.1c-1-0.2-1.9,0.5-3.1,0.3c0.4-1.5,1.6-2.4,2.6-3.4c3.7-0.2,6,2.8,9.5,2.1c-2.5-1.1-5.3-1.6-7.5-3
		c0.1-1,0.6-1.7,0.8-2.7c4.2-0.9,7.7,0.7,11,2.2c2.4,1.1,4.7,2.5,6.4,4.1c-1.2,0.5-2.5-0.7-4.3-0.1c2.4,1.2,5.2,1.9,7.9,2.7
		C203.5,211,198.6,210,196.3,208.5z"/>
	<polygon class="st1" points="172.6,240.8 163.1,242.3 163.7,245.6 168.7,275.5 169.2,278.8 178.6,277.2 178,273.9 173.1,244 	"/>
	<polygon class="st1" points="146.5,282.5 165.8,279.3 164.4,271 154.5,272.6 150.4,247.8 149.9,244.5 140.5,246.1 141.1,249.3 
		145.9,278.6 	"/>
	<polygon class="st1" points="197.5,270.7 193.4,245.9 200,244.8 198.6,236.4 175.9,240.2 177.3,248.5 184,247.4 188.1,272.3 
		188.6,275.6 198.1,274 	"/>
	<path class="st1" d="M262.6,263.3l-14.2-35.1l-11.6,1.9l-2.1,37.8l9.1-1.5l0-4.2l7.8-1.3l1.3,3.9L262.6,263.3z M244,254.7l0.2-14.3
		l4.8,13.5L244,254.7z"/>
	<path class="st1" d="M231.2,263.6c-0.1-0.5-0.2-1.1-0.3-1.7l-0.7-4.5c-0.2-1-0.4-2-0.8-2.8c-0.4-0.8-0.8-1.6-1.3-2.2
		c-0.5-0.6-1.1-1.1-1.7-1.4c-0.6-0.3-1.3-0.5-2-0.6l-0.7-0.1l0.6-0.4c0,0,1.2-0.9,1.7-1.4c0.5-0.5,0.9-1.1,1.2-1.7
		c0.3-0.6,0.5-1.4,0.6-2.3c0.1-0.9,0-1.9-0.2-3.1l-0.1-0.7c-0.5-2.9-1.6-5-3.3-6.3c-1.7-1.3-4.2-1.7-7.3-1.2l-14.8,2.5l0.6,3.3
		l4.9,29.9l0.5,3.3l9.4-1.6l-0.6-3.3l-1.9-11.7l1.7-0.3c0.6-0.1,1.2-0.1,1.7,0c0.5,0.1,1,0.4,1.3,0.8c0.4,0.4,0.6,0.9,0.9,1.5
		c0.2,0.6,0.4,1.3,0.5,2.1l1,6.2c0.1,0.4,0.2,0.8,0.3,1.3c0.1,0.4,0.3,0.8,0.4,1.1c0.2,0.4,0.3,0.6,0.5,0.9c0.1,0.2,0.3,0.4,0.5,0.5
		l9-1.5c-0.4-0.8-1.1-2.6-1.3-3.1C231.4,264.7,231.2,264.2,231.2,263.6z M218.5,244.7c0.2,1.4,0.2,2.4-0.2,3.1
		c-0.4,0.7-1.2,1.2-2.2,1.4l-2.1,0.4l-1.3-7.9l2.1-0.4c1-0.2,1.9,0,2.5,0.5c0.6,0.5,1,1.4,1.2,2.8L218.5,244.7z"/>
	<g>
		<path class="st1" d="M172.6,288.8c0.4-0.1,0.8,0,1.2,0.1c0.4,0.2,0.7,0.4,1,0.8c0.3,0.4,0.4,0.8,0.5,1.2c0.2,1-0.2,1.8-1,2.5
			c-0.9,0.7-2.3,1.2-4.3,1.5l-2.1,0.4l-1.7-9.5c0.3-0.3,0.8-0.5,1.5-0.7c0.7-0.2,1.3-0.4,2-0.5c0.6-0.1,1.2-0.1,1.7,0
			c0.6,0.1,1.1,0.3,1.5,0.6c0.4,0.3,0.6,0.7,0.7,1.1c0.1,0.5,0,1-0.2,1.5c-0.2,0.5-0.6,0.8-1,1C172.4,288.9,172.5,288.8,172.6,288.8
			z M170.6,286.8c-0.2-0.1-0.5-0.1-0.8-0.1c-0.2,0-0.4,0.1-0.6,0.3l0.3,1.5c0.1,0,0.3,0,0.4,0c0.3-0.1,0.6-0.2,0.9-0.4
			s0.3-0.5,0.3-0.7C170.9,287,170.8,286.9,170.6,286.8z M171.9,292.1c0.3-0.3,0.4-0.6,0.3-0.9c0-0.3-0.2-0.5-0.5-0.6
			c-0.3-0.1-0.6-0.1-0.9-0.1s-0.7,0.2-0.9,0.4l0.3,1.8c0.2,0,0.4,0,0.6,0C171.2,292.5,171.6,292.4,171.9,292.1z"/>
		<path class="st1" d="M182.4,290.2c0.4,0.1,0.7,0.2,1.2,0.1l0.5,2.6c-0.7,0.1-1.4,0.1-2.1,0s-1.3-0.4-1.9-0.8
			c-0.6-0.4-1-0.8-1.3-1.4l-0.4,0l0.5,2.5l-2.8,0.5l-1.8-9.3c0.3-0.2,0.7-0.5,1.4-0.7c0.6-0.2,1.2-0.4,1.8-0.5c1-0.2,1.9-0.2,2.7,0
			c0.8,0.2,1.4,0.5,1.8,1c0.5,0.5,0.8,1.1,0.9,1.8c0.1,0.7,0.1,1.3-0.2,1.9c-0.2,0.6-0.6,1.1-1.1,1.6
			C181.7,289.8,182,290.1,182.4,290.2z M177.8,288.2c0.2,0,0.4,0,0.6,0c0.3-0.1,0.6-0.2,0.8-0.3c0.3-0.2,0.5-0.4,0.6-0.6
			c0.1-0.2,0.2-0.5,0.1-0.7c0-0.2-0.1-0.4-0.3-0.6c-0.2-0.2-0.4-0.3-0.6-0.4c-0.2-0.1-0.5-0.1-0.7-0.1c-0.2,0-0.3,0.1-0.5,0.2
			c-0.2,0.1-0.3,0.2-0.4,0.2L177.8,288.2z"/>
		<path class="st1" d="M191.3,288.2l0.5,2.6l-7.4,1.5l-2.2-9.9l7.4-1.6l0.7,2.6l-4.7,0.9l0.2,1l3.9-0.8l0.6,2.6l-3.9,0.8l0.3,1.2
			L191.3,288.2z"/>
		<path class="st1" d="M206.2,279.3l-2,9.6l-3.4,0.6l-2-4.7l-0.3,4.8l-3.5,0.6l-4.6-8.5l3-1.5l2.7,5.3l0.7-5.7l2.6-0.5l2.4,5.6
			l1-6.7L206.2,279.3z"/>
		<path class="st1" d="M206.2,278.1l2.7-0.5l1.7,9.9l-2.7,0.5L206.2,278.1z"/>
		<path class="st1" d="M219.3,275.6l1.8,10.1l-2.7,0.5l-5.4-4.7l1.1,5.5l-2.7,0.6l-2-10.2l2.7-0.4l5.5,4.7l-1-5.5L219.3,275.6z"/>
		<path class="st1" d="M230.9,279.4c0.1,0.6,0.1,1.3-0.1,2c-0.2,0.7-0.6,1.3-1.1,1.8c-0.5,0.5-1.1,0.9-1.8,1.2
			c-0.3,0.1-0.7,0.2-1,0.3c-0.8,0.1-1.6,0.1-2.4-0.1c-0.8-0.2-1.5-0.6-2.2-1.1c-0.6-0.5-1.1-1.1-1.4-1.9c-0.1-0.3-0.2-0.6-0.3-0.9
			c-0.1-0.7-0.1-1.5,0.1-2.3c0.2-0.8,0.6-1.4,1.2-2c0.5-0.6,1.2-1.1,2-1.4c0.4-0.1,0.8-0.2,1.1-0.3c0.6-0.1,1.3-0.1,1.9-0.1
			c0.6,0.1,1.2,0.2,1.6,0.5l-1.1,2.4c-0.2-0.1-0.5-0.2-0.9-0.3s-0.7,0-1,0c-0.2,0-0.4,0.1-0.6,0.2c-0.5,0.2-0.9,0.6-1.1,1
			s-0.3,1-0.2,1.5c0,0.1,0.1,0.3,0.1,0.4c0.2,0.5,0.6,0.9,1.1,1.2c0.5,0.3,1,0.4,1.6,0.3c0.1,0,0.3-0.1,0.4-0.1
			c0.3-0.1,0.6-0.3,0.8-0.5c0.3-0.2,0.4-0.5,0.4-0.7l-2.6,0l0.2-2.4l4.8,0C230.6,278.4,230.8,278.9,230.9,279.4z"/>
		<path class="st1" d="M237.7,282c-0.9-0.3-1.6-0.8-2.2-1.5c-0.6-0.7-1-1.5-1.2-2.4c-0.2-0.9-0.1-1.8,0.3-2.6
			c0.3-0.8,0.9-1.6,1.6-2.2c0.7-0.6,1.6-1,2.6-1.2c0.7-0.1,1.4-0.1,2.1,0c0.7,0.1,1.3,0.4,1.9,0.8c0.6,0.4,1,1,1.3,1.7l-2.3,1.1
			c-0.2-0.3-0.5-0.6-1-0.8c-0.5-0.2-1-0.3-1.6-0.2c-0.7,0.1-1.3,0.4-1.7,0.9c-0.4,0.5-0.5,1.1-0.4,1.9c0.1,0.5,0.3,0.9,0.6,1.3
			c0.3,0.3,0.6,0.6,1.1,0.7c0.4,0.1,0.8,0.2,1.3,0.1c0.4-0.1,0.7-0.2,1.1-0.4c0.3-0.2,0.6-0.5,0.7-0.7c0.2-0.3,0.3-0.5,0.3-0.7
			l2.4,0.3c0,0.6-0.2,1.2-0.6,1.8c-0.4,0.6-0.9,1.1-1.5,1.5c-0.6,0.4-1.3,0.7-2.1,0.8C239.5,282.4,238.6,282.3,237.7,282z"/>
		<path class="st1" d="M247.8,280.1c-0.9-0.3-1.7-0.8-2.4-1.5c-0.7-0.7-1.1-1.5-1.2-2.4s-0.1-1.8,0.3-2.6c0.4-0.9,0.9-1.6,1.7-2.2
			c0.8-0.6,1.6-1,2.6-1.2c1-0.2,1.9-0.1,2.8,0.2c0.9,0.3,1.7,0.8,2.3,1.5c0.6,0.7,1,1.5,1.2,2.3c0.2,0.9,0.1,1.8-0.3,2.7
			c-0.4,0.9-0.9,1.6-1.7,2.2c-0.8,0.6-1.6,1-2.6,1.2C249.7,280.5,248.8,280.5,247.8,280.1z M251.4,277.2c0.4-0.3,0.7-0.7,0.8-1.1
			s0.2-0.9,0.1-1.3c-0.1-0.5-0.3-0.8-0.6-1.2c-0.3-0.3-0.7-0.5-1.2-0.7c-0.5-0.1-0.9-0.1-1.5-0.1c-0.5,0.1-0.9,0.3-1.3,0.5
			c-0.4,0.3-0.6,0.6-0.8,1s-0.2,0.8-0.1,1.3c0.1,0.5,0.3,0.9,0.6,1.2c0.3,0.3,0.7,0.6,1.1,0.7s0.9,0.2,1.4,0.1
			C250.6,277.7,251.1,277.5,251.4,277.2z"/>
	</g>
</g>
</svg>
