<?xml version="1.0" encoding="UTF-8"?>
<svg id="Layer_2" data-name="Layer 2" xmlns="http://www.w3.org/2000/svg" viewBox="0 0 4100.09 2698.68">
  <defs>
    <style>
      .cls-1 {
        fill: #000814;
      }
    </style>
  </defs>
  <g id="Layer_1-2" data-name="Layer 1">
    <path class="cls-1" d="m4077.68,243.01c1.67,23.06-4.4,45.78,5.58,69.45,3.96,9.4-6.01,24.93-10.34,37.43-3.98,11.5-14.04,11.62-24,11.24-5.64,13.32,9.9,7.35,12.24,13.41,25.38,18.92,24.31,41.84,8.72,65.73-9.94,15.24,5.23,24.13,8.18,35.82,1.36,5.4,16.62,8.8,12.86,17.3-5.19,11.72-13.02,25.29-23.55,30.83-12.91,6.8-23.18,16.93-36.01,23.24,10.62,9.23,12.82,20.17,9.7,33.99-5.11,22.69-.09,43.74,15.01,61.95,1.34,1.6,4.07,4.4,4.07,4.44-20.04,19.01,9.69,34.76,3.48,53.07-2.31,6.83-1.74,14.64-2.5,21.99,1.26,3.42,1.73,6.84,1.73,10.26,0,13.09-6.79,26.24-1.41,39.29,6.85,6.86,9.95,14.19,9.95,21.89,0,5.8-1.75,11.82-4.98,18.01-1.37,1.52-2.74,3.05-4.1,4.57-15.33,21.32-6.9,48.7-18.34,71.3-5.8,11.46-9.29,24.23-22.48,29.33-8.54,3.3-3.48,6.97-1.72,11.26,9.24,22.58,6.47,44.88-1.97,66.99-4.23,8.33-5.11,16.97-5.11,25.7,0,9.36,1.01,18.82-.03,28.09-.89,7.94,3.74,18.59-8.85,22-3.12,14.67-11.45,26.02-22.74,35.46-18.94,15.15-41.27,26.07-57.02,45.25.02,2.66.03,5.33.04,7.99,6.78-2.84,13.15-8.21,20.36-8.21,3.08,0,6.31.98,9.8,3.56,5.98-10.47,14.26-15.78,26.66-11.87,16.34,16.38,10.54,35.06,5.59,53.65-.72,31.68-16.26,59.54-22.95,89.64-1.82,8.18-10.79,12.16-9.76,21.04-8.3,34.91-12.75,71-31.32,102.78.13,1.64.2,3.27.2,4.86,0,21.78-11.99,38.11-26.71,53.19-4.19,9.08-8.38,18.14-12.58,27.22-7.77,26.67-15.55,53.35-23.32,80.03-7.03,15.18-14.04,30.37-21.06,45.55-4.88,13.13-9.77,26.28-14.65,39.41-4.08,25.63-17.36,47.72-27.3,71.1-3.99,22.21-8.95,44.16-14.79,65.88-5.84,21.72-12.58,43.19-20.11,64.45-.24,4.74.39,9.71-3.49,13.53-28.23,67.93-28.74,141.64-43.93,212.31-6.33,29.43-13.33,58.46-23.13,86.85-5.08,31.16-10.16,62.31-15.24,93.46-1.81,10.63-2.98,21.4-4.63,32.07-1.63,10.68-3.75,21.26-7.42,31.54-.32,11.42-1.51,22.56-3.54,33.6-2.03,11.04-4.89,22-8.53,33.04-8.73,26.5-11.76,54.97-16.13,82.76-1.51,9.66-5.74,18.11-8.06,27.29-2.38,9.49-8.64,5.35-14.08,4.45-17.4,1.02-32.07,4.48-26.44,27.69.58,2.44-.33,6.55-2.11,8.07-20.49,17.51-9.77,42.72-16.12,63.65-9,5.62-12.36,19.82-26.6,17.53-9.55,2.35-18,19.67-29.01,2.12-22.79,14.09-42.4-7.61-64.1-5.7-4.42,2.48-8.63,3.49-12.7,3.49-8.21,0-15.85-4.11-23.43-8.55-5.21-3.65-6.34-12.1-14.69-12.09-14.27.01-21.49-6.49-21.73-21.52-.16-10.21-17.34-3.8-17.44-15.57-9.99-6.16-24.28-1.45-32.21-12.75-1.97-.9-4.44-1.51-6.62-2.29-2.18-.78-4.07-1.7-4.91-3.22-13.68-24.66-34.23-16.29-53.37-10.95-6.58,1.83-12.54,3.55-19.22,2.44,1.61,21.98-12.9,44.99-31.31,49.64,4.43,7.86,7.21,12.81,7.21,16.42,0,6.11-7.93,8.46-29.25,14.78-9.52,26.08-36.27,23.78-55.92,31.71-7.58,3.06-19.25-9.21-25.25-17.5-8.98-12.4-20.89-21.39-31.13-32.23-5.72,8.18-6.59,21.18-23.08,17.63-4.47-.95-14.65,8.22-16.52,14.46-5.6,18.67-15.52,20.93-31.77,13.76-5-2.2-11.66-.61-17.57-.76-3.92,3.88-8.78,4.1-13.84,3.54-7.53,3.62-12.64,14.47-24.08,3.3-6.61-6.46-44.6,6.31-51.42,15.94-5.95,8.39-12.34,13.73-22.95,12.64-2.59,3.79-4.96,9.31-9.63,9.31-.49,0-1.01-.05-1.56-.19-19.16-4.59-42.94,10-57.58-13.23-6.01-9.54-15.32,3.61-21.36-3.67-4.4-1.29-9.07-1.1-13.67-1.33-4.59-.23-9.1-.88-13.17-3.88-2.34-.77-6.1-2.62-7.41-2.62-.21,0-.35.04-.43.14-24.46,32.02-58.82,17.6-89.48,18.54-10.19.32-10.49-16.08-25.44-17.07-24.33-1.61-46.95,2.8-69.78,8.19-10.67,2.52-19.58-6.6-29.91-2.59-8,6.71-16.09,5.32-24.23.29-9.76,4.93-19.11,6.84-28.21,6.84-26.97,0-51.73-16.73-78.15-20.87-2.96-.3-5.92-.59-8.88-.9-3.88.49-7.73.71-11.56.71-10.14,0-20.16-1.56-30.18-3.86-21.32-4.9-36.78-27.3-38.2-48.44-1.8-26.97,6.38-46.88,30.17-60.01,1.64-1.5,3.54-2.81,4.87-4.54,1.79-2.34.44-4.31-2.03-3.65-5.68,1.53-13.01,2.2-16.39,6.07-13.36,15.29-29.74,17.48-47.96,13.54-6.52-1.4-10.13-.35-10.02,6.94,1.23,10.78,18.01,19.34,18.01,27.95,0,2.28-1.17,4.56-4.13,6.89-10.85,8.53-16.84,20.56-27.99,28.1-12.79,8.66-25.75,7.37-39.37,4.85-7.62,5.45-15.9,6.37-24.32,6.37s-16.63-.89-24.65.75c-2.89,1.92-5.91,2.74-8.85,2.74-3.61,0-7.1-1.24-10.14-3.22-18.92-12.39-37.48-5.44-56.54-.86-15.5,3.72-33.45,2.05-38.83,23.07-.58,2.26-8,5.46-9.43,4.41-21.55-15.95-46.86-.37-70.73-9.74-20.37-7.98-43.47-8.13-59.13-31.87.76,22.68-6.34,28.53-25.36,20.69-32.2-13.28-63.02-4.47-91.03,12.52-19.82,12.03-38.95,9.66-56.43-.14-11.29-6.34-21.35-12.6-34.51-12.11-3.88,10.83-6.73,16-12.33,16-4.87,0-11.82-3.89-23.34-11.35-19.78,19.57-46.53,25.73-63.05,14.5-9.41-4.73-17.34,3.57-26.28,2.94-10.45-1.3-19.81-4.43-28.09-9.37-8.28-4.93-15.48-11.69-21.59-20.23-7.87-11.03-17.94-3.17-25.23-.92-13.22,4.07-22.39,1.97-30.05-8.99-7.92,2.5-9.21-4.13-12-8.69,1.14-1.06,2.15-2,3.01-2.83-1.1.61-2.13,1.52-3.03,2.83-2.78-1.58-5.58-3.16-8.37-4.75-2.87-.22-5.73-.44-8.6-.66-12.58,10.69-26.82,3.95-40.42,3.86-17.54-4.82-35.2-8.85-53.58-8.21h0c-12.17-4.12-24.34-8.24-36.52-12.37-10.97-7.13-18.6-10.93-21.95,8.22-2.46,14.09-17.73,16.68-30.66,18.71-3.65,2.63-10.88,3.51-10.88,7.74,0,1.81,1.3,4.22,4.76,7.63,3.59,3.54,4.06,11.23-3.03,15.06-2.8.99-6.62,3.67-8.24,2.7-25.68-15.32-46.58.5-69.28,8.87-12.98,4.79-27.11,8.84-38.23-9.07-9.24-14.88-29.03-18.5-44.18-26.92-9.07-5.05-10.81,12.59-20,9.56-13.07-4.31-27.85-3.37-39.29-12.64-3.44-.96-6.66-1.57-10.02-1.57-2.74,0-5.58.39-8.73,1.32-13.34,3.91-26.43,14.12-42.06,3.37-5.69-3.9-11.98,3.84-16.82,8.26-9.24,8.43-16.5,6.22-19.9-4.83-3.29-10.71-10.81-14.54-20.25-17.82-18.56-6.46-38.23-8.23-56.91-15.23-9.98-3.75-26.98-8.2-33.23,12.28-3.09,10.15-16.14,3.72-24.32,6.27-1.05,2.57-1.79,7.18-3.2,7.4-15.92,2.43-23.91,9.92-27.47,27.06-3.17,15.23-18.87,16.54-29.11,4.21-3.86-4.65-6.87-7.75-13.44-9.28-7.38-1.71-15.39-6.87-10.4-17.63,1.8-3.85,1.59-8.19-2.13-9.58-18.59-6.98-4.03-14.27.49-22.01-7.28-6.35-16.35,2.29-22.81-3.4-16.25-5.57-31.02,11.01-48.2.48,8.73,30.06,2.87,36.99-22.98,30.77-6.29.43-8.86,2.69-8.86,6.59,0,1.83.56,4.02,1.58,6.57,7.86,19.62-3.29,23.06-17.78,17.2-7.38-2.98-14.34,5.16-20.11-2-6.4-3.42-13.73-5.37-19.79-9.04-6.06-3.67-10.85-9.07-12.18-19.34-.94-7.35-15.1.42-24.37-5.58-16.91-10.93-33.22-26.47-55.74-25.02-1.38.54-2.89.77-4.62.53-10.1-.7-15.88-5.35-19.94-11.56-4.08-6.21-6.46-13.97-9.76-20.87h0c-6.7-4.76-14.36-7.95-21.73-11.61-7.38-3.65-14.46-7.78-19.99-14.41-7.49-4.86-19.49-3.75-21.03-16.43-1.04-8.63,1.22-12.24,16.14-23.15-1.49-8.52-12.86-1.93-14.86-9.52-7.94-.46-14.7-3.4-19.99-9.44-1.02.6-2.13.83-3.31.69,3.8,19.09,1.34,32.77-23.22,33.26-13.19.26-15.83,13.06-16.81,23.4-.67,7.1-2.36,13.4-6.91,17.94-10.02,9.98-59.77,6.95-70.77-3.63-.14.01-.27.01-.42.01-7.48,0-9.33-10.76-17.51-9.42-10.51,1.72-22.9,10.29-26.13-9.81-1.44-9.01-12.05-8.49-18.63-8.92-16.29-1.1-15.78-8.91-10.02-20,6.27-12.08,14.03-22.57-1.22-35.68-8.31-7.15-2.23-21.04-1.29-31.91-.18-7.17-.35-14.34-1.53-21.28-1.18-6.95-3.39-13.67-7.61-19.94,2.72-17.22,15.64-27.8,26.1-39.98,8.31-5.54,14.25-10.43,6.96-22.3-6.67-10.86-2.24-27.23-16.09-35.28-7.56-3-9.35-7.6-9.35-12.67,0-6.21,2.68-13.15.71-18.81-1.71-1.34-3.4-3.22-5.11-4.78-1.7-1.56-3.41-2.81-5.14-2.84-22.5-.49-32.74-17.26-44.69-31.95-.9-1.77-1.81-3.53-2.71-5.3,10.48-5.24,15.03-10.77.85-17.22.88-1.79,1.75-3.56,2.63-5.35.16-8.15,7.08-10.25,12.51-13.3,2.63-1.47,6.69-3.54,5-5.54-13.68-16.16,3.99-15.61,10.72-20.85,1.74-3.4,5.37-7.36,5.37-10.83,0-1.14-.4-2.23-1.36-3.22-12.23-12.64-1.26-21.16,3.89-30.91-1.21-3.08-2.4-6.17-3.61-9.25,1.11-.71,2.2-1.46,3.3-2.2-1.16.62-2.27,1.34-3.3,2.2-3.55-3.78-4.03-8.53-4.19-13.38-.65-2.51-.93-4.9-.93-7.2,0-12.37,8.29-22.08,13.74-32.7-14.64-5.65-24.12-19.15-39.12-24.83-7.15-2.71-8.33-37.5-2.93-43.08,5.72-9.79-6.81-20.18,2.49-30.99,11.62-13.52,25.3-9.15,39-8.65,1.75-2.91,3.52-5.81,5.27-8.72-3.85-8.3-10.61-13.46-18.11-18.42-8.1-5.35-16.12-11.92-6.17-22.71-4.75-23.85-2.49-26.31,32.2-35.2-4.5-9.06-9.03-18.09-13.47-27.17-7.69-15.73-3.61-23.28,13.16-31.11,9.36-4.37,29.56-2.81,18.11-24.44-1.7-3.19,5.1-8.03,10.12-10.25,7.32-3.23,14.39-7.04,21.58-10.59,4.43-2.43,8.86-4.86,13.28-7.29-1.45-.32-2.84-.79-4.19-1.39-8.35.75-16.76,2.04-24.99,2.04-10.8,0-21.26-2.23-30.79-10.84-2.37-2.15-6.9-5.02-10.15-2.05-15.09,13.8-27.34,3.23-38.72-5.09-13.46-9.83-24.95-22.1-33.73-36.56-4.31-13.92-7.72-27.54-23.31-35.03-15.11-7.25-8.05-20.12-.04-26.73,22.09-18.25,25.7-41.32,22.34-67.33-29.74-.7-35.69-2.58-35.69-26.13,0-3.74.14-8.01.37-12.93.49-10.79-9.74-13.56-13.31-21.81-8.76-20.21,12.61-33.55,8.51-51.66-1.35-5.56-1.4-10.85-9.45-12.87-9.59-2.41-14.75-13.78-12.15-20.49,5.74-14.81-1.75-20.85-10.97-29.34-8.63-7.94-11.49-18.31,4.39-22.97,8.85-2.6,13.47-6.07,12.16-17.05-2.12-17.66,12.79-28.98,19.48-43.44-12.58-5.46-19.39-14.91-19.39-26.37,0-2.46.32-5.01.95-7.63.33-1.38,1.37-3.55.84-4.05-12.53-11.93-5.82-31.04-16.46-43.59-3.3-2.95-4.41-5.87-4.41-8.76,0-6.21,5.14-12.32,4.91-18.54-2.58-19.32,2.35-32.57,25.3-31.27-14.82-22.04-11.16-58.68,15.35-69.97,23.83-10.16,44.85-31.52,74.1-28.11,1.97-13.46-1.48-22.8-17.3-22.78-7.9-2.48-16.37-2.88-24.49-4.57-8.12-1.7-15.91-4.66-22.41-12.26-8.78-10.23-9.83-20.62,2.32-25.44,11.42-4.52,23.47-7.42,35.25-11.03,2.47-5.99-1.04-9.47-4.99-13.27-7.74-7.46-15.4-11.92-10.54-27.9,4.18-13.69-16.14-19.31-28.42-25.26-18.43-8.69-31.51-20.83-23.68-43.28,3.79-10.89-9.74-18.1-4.31-28.56-1.34-2.06-2.06-3.78-2.06-5.25,0-2.36,1.85-4.06,6.04-5.49,9.13-3.11,14.63-9.2,9.87-19.79-24.94-32.08-18.22-66.78-7.15-101.13,3.05-9.45-4.09-13.32-5.55-20.01-2.53-4.57-4.36-8.89-4.36-12.6,0-4.9,3.21-8.73,12.26-10.61,4.26-.88,4.75-4.82,5.82-8.17-1.2-5.67-4.43-13.18,3.44-15.18,16.99-4.33,30.98-16.41,41.17-26.94,16.04-16.58,29.04-11.3,45.99-7.97,7.19,1.4,20.96,8.6,24.6-7.7-7.52-2.98-14.26-7.59-21.31-11.62-7.04-4.02-14.4-7.5-23.12-8.22-6.46-.55-10.95-7.16-10.09-15.04-17.95-9.33-25.12-14.74-25.12-25.7,0-5.62,1.89-12.71,5.17-22.53,3.77-11.28,2.45-21.52-1.59-32.01-6.85-2.98-9.76-8.97-9.76-15.6v-.22c.13-14.49-5.09-22.54-20.27-26.71-9.76-2.68-7.49-14.32-1.7-20.19,5.74-5.84,5.93-13.18,9.48-19.38.53-1.37.7-2.86.7-4.42,0-7.24-3.72-15.8,7.65-18.99,6.73-2.77,13.56-5.33,20.17-8.35,22.15-10.15,37.66-20.87,37.56-51.78-.07-19.46,13.05-39.21,11.28-62.84-1.01-13.32-.61-29.55,2.12-44.19-6.33-1.64-8.13-5.42-8.13-9.51,0-2.8.83-5.73,1.66-8.27,2.8-8.6,8.23-16.34,12.54-24.45-.01-8.27,7-10.32,12.32-13.86-.12-.32-.19-.64-.19-.94,0-.45.13-.89.38-1.3-6.14-13.12,4.23-23.68,6.01-35.6,1.12-7.49,9.06-4.11,14.83-3.49,13.73,1.47,25.71.92,21.18-19.13-2.98-13.23,6.47-17.39,17-15.71,17.37,2.75,36.14,4.25,44.83,23.83,1.96.11,4.39.81,6.27.81.86,0,1.6-.15,2.15-.56,18.61-14.09,42.2-16.99,62.1-28.04h.01c5.91-9.47,15.73-14.65,23.9-21.63-.81-1.78-2.66-4.43-2.66-5.5,0-.14.03-.26.1-.34,15.89-18.6,30.4-40.28,59.47-36.8,9.56,1.15,15.89-1.36,20.93-8.68,7.66-11.13,14.91-13.72,23.45-.52,6.07,9.4,12.9,7.95,13.2-2.87.37-13.51,8.56-11.59,16.58-11.14,5.85.33,12.13.46,17.4,2.65,16.23,6.73,31.03,15.44,42.87-8.05,4.17-8.27,16.45.94,25.1.32,9.68-.69,13.91,2.82,19.34,12.59,7.42,13.33,28.93,24.15,27.32,37.23-2.41,19.59,13.56,26.63,16.86,40.94,2.43,10.58,8.51,7.64,14.08,1.84,9.71-6.27,18.47-13.8,29.67-13.8,4.64,0,9.69,1.29,15.41,4.52,13.05,7.35,26.64-6.95,40.82-7.31,7.24-2.18,1.86-10.91,7.29-14.03h0c6.91-10.96,16.54-14.75,27.38-14.75,3.46,0,7.06.38,10.72,1.05,13.75,2.5,25.48.94,31.19-13.53,2.32-5.9,7.69-10.19,11.46-8.26,20.31,10.37,38.59-24.16,56.91-3.49,10.28,11.62,23.44,16.77,35.02,25.24,14.92,10.92,24.46,4.93,30.31-10.17,10.15-26.2,22.09-28.69,49.57-18.84,16.42,5.89,33.75,5.65,37.33,27.79.69,4.3-1.47,6.78-1.76,10.17,16.83,15.52,32.29,13.24,47.43-2.93,13.79-14.73,32.48-18.41,51.32-22.94,13.52-3.25,19.16,1.76,23.3,12.66,1.33-.52,2.49-.73,3.51-.73,6.35,0,7.52,8.65,12.79,10.46,6.87-4.02,13.98-6.64,21.52-6.64,3.14,0,6.35.46,9.65,1.45-.27-1.8-.39-3.54-.39-5.23,0-16.49,12.38-26.93,25.19-28.32,12.66-1.38,34.59-.85,34.18,23.68,20.25,4.85,37.73,12.79,41.04,36.6,5.13,6.33,11.17-1.85,16.52,1.02,12.63-2.8,27.28-.45,35.77-13.9,1.95-6.41,4.22-11.7,8.35-11.7,2.34,0,5.25,1.68,9.04,5.79,12.02,13.02,29.84,17.36,44.26,26.81,11.6,7.6,29.83,17.98,48.86,7.25,9.1-5.13,21.5-4.44,32.41-6.39,8.07-4.75,15.12-9.67,26.18-5.31,7.6,3,18.29,2.73,26.04-.2,11.7-4.41,21.08-8.74,30.57,3.89,2.06,2.75,9.79,1.22,14.91,1.73,7.94.79,18.1-3.62,19.18,11.29.22,3.03,12.38,4.91,18.79,7.85,10.36,4.73,10.91,9.24-.83,12.75-.8,16.7,6.79,34.91-8.78,48.97,1.6,3.48,4.83,2.89,7.75,3.1,4.83-4.05,8.88-8.72,12.2-13.82,3.32-5.09,5.93-10.61,7.87-16.38,8.49-25.06,25.34-43.99,43.08-62.47,9.48-5.48,18.79-11.33,28.54-16.31,5.41-2.76,10.32-8.07,18.02-2.19,5.91,4.52,12.14,1.27,19.89-1.22,16.95-5.45,36.53-6.55,54.38,1.81,13.21,5.84,26.41,11.7,39.62,17.55,17.38-20.47,53.99-26.96,73.56-6.95,17.05,17.43,22.12,5.8,31.17-4.28,4.41-4.91,8.64-9.98,12.95-14.98,29.18-29.21,62.41-37.57,100.92-19.85,1.29.59,3.83-1.5,5.78-2.35.89-1.26,2.11-1.82,3.64-1.66,14.75-2.53,29.46-5.24,44.19-7.82,14.73-2.59,29.48-5.04,44.28-7.12,13.9-1.94,26.87-8.55,42.6-2.97,12.48,4.43,22.11,10.01,30.27,19.83,11.83,14.27,27.64,21.83,45.6,25.31h0c27.12,2.95,53.87.79,80.48-5.01,8.95-1.95,18.29-5.46,27.11.88h.01c13.55,14.93,31.1,9.13,46.79,7.16,7.69-.95,15.6-1.55,23.34-2.72,22.67-15.1,47.14-12.66,64.19,6.37,8.97,10,20.19,13.93,33.46,12.45,30-3.34,56.82,5.2,81.79,21.33,3.68,2.37,4.58,5.38,5.32,8.98,4.52,15.14,20.8,26.87,13.2,45.52,1.39,1.46,2.8,2.93,4.19,4.4.67.08,1.28.12,1.86.12,8.49,0,8.4-8.39,11.46-13.7.11-1.54.23-3.07.34-4.6,1.81-11.4,4.37-21.92,19.13-22.83,6.7-.41,11.85-5.4,11.93-11.49.22-20.55,14.9-31.77,26.98-44.83,12.84-5.38,27.13-6.11,41-8.23,13.87-2.13,27.29-5.66,38.38-16.69,1.39-1.39,4.83-2.97,5.69-2.32,22.24,16.82,52.37-5.42,73.81,14.91,1.01.94,2.84,2.08,3.89,1.78,19.08-5.58,31.14,5.23,42.46,17.86,2.97-5.49,9.18-7.24,14.86-9.58,5.68-2.36,10.82-5.32,11.68-13.25,2.08-17.84,10.49-21.12,26.47-13.32,22.26,10.86,45.17,5.25,67.73-.26,26.27-6.42,35.03-.22,36.54,26.16,7.26,1.47,4.98-5.49,7.27-8.33,13.29-16.4,22.76-16.34,35.34.1,2.98,3.89,6.14,8.92,10.29,10.44,21.81,7.94,31.72,22.41,34.35,45.95,1.8,16.01,17.49,17.55,29.96,4.39,4.51-4.76,6.78-11.11,15.73-8.08,13.08,4.43,23.32,1.14,27.78-13.45.56-1.84,2.73-3.19,4.17-4.76,9.92,13.87,23.71-.98,33,3.82,11.57,5.98,16.52,19.79,16.21,32.75-.2,8.66,4.4,15.26,5.16,23.12.01.01.01.03.01.04,1.33,4.1,2.74,8.17,3.95,12.3,1.6,5.53,1.63,13.75,8.86,13.45,8.83-.36,4.08-9.07,5.37-14.02,3.49-13.34,4.42-27.76,16.64-37.17,6.39-4.92,6.44-11.06,3.57-17.82-1.36-2.84-2.72-5.69-4.09-8.53-5.95-4.13-9.17-8.05-9.17-11.72s3.44-7.37,10.86-10.61c4.39-3.31,6.81-7.89,13.75-9.42,11.93-2.62,23.69-6.33,32.81-17.29,9.93-11.94,27.5-8.43,35.1,4.54,1.07,1.83,1.69,4.97,3.14,5.38,35.62,10.42,36.4,40.69,39.96,69.4,16.11.9,30.35,13.9,48.03,6.25,8.11-3.51,8.15,8.56,14.21,10.39,10.95-6.8,21.72-13.92,32.89-20.33,15.34-8.77,33.11-1.34,38.67,15.74q9.81,30.09,36.3,15.69c2.38-1.28,5.74-.73,8.65-1.04,3.28-3.84,6.07-5.24,8.58-5.24,6.8,0,11.59,10.2,18.32,10.52,5.91-.25,10.36,2.27,13.57,7.14l64.33,7.86c13.55,1.66,17.49-14.68,29.56-15.78,6.05-3.39,12.07-8.57,18.34-.35,3.94,3.3,8.53,5.25,12.99,5.25,2.69,0,5.32-.71,7.72-2.26,16.77-10.83,33.82-8.95,50.89-2.87,17.08,6.08,32.75.88,48.73-3.71,7.77-4.82,14.49-11.48,21.86-17.01,7.37-5.53,15.38-9.94,25.72-10.28,6.65-.22,14.82-3.66,11.19,9.93-2.48,9.25,7.03,14.7,14.38,16.04,12.86,2.32,4.75-9,6.97-13.77,4.22-9.03,8.12-16.03,19.67-8.23,5.37,3.63,12.02,6.95,18.29,7.4,21.18,1.52,26.96,13.8,25.15,32.48,7.03,3.29,9.11,8.69,9.11,15.63,0,.84-.03,1.7-.09,2.59-.34,5.22-1.74,10.39,5.71,14.73,13.76,8.03,13.36,14.98-2,20.67-15.61,5.78-11.43,12.68-10.47,25.87Z"/>
  </g>

  
  <image xlink:href="https://scontent.fkiv9-2.fna.fbcdn.net/v/t39.30808-6/276233708_2081919368641291_6758038487967862105_n.jpg?_nc_cat=102&ccb=1-7&_nc_sid=86c6b0&_nc_ohc=y4zJbEyLHOMQ7kNvgFrsUku&_nc_zt=23&_nc_ht=scontent.fkiv9-2.fna&_nc_gid=ArYj5l80Z5_BroadcBUYPmO&oh=00_AYDBZkLshV72-774hv74ogHWgGjVWL5ORy4vo29kKYe0uw&oe=67613D53" x="0" y="0" width="100%" height="100%"></image>
  

</svg>